<svg width="105" height="92" viewBox="0 0 105 92" fill="none" xmlns="http://www.w3.org/2000/svg">
<path d="M95.0328 82.8506L92.9463 83.6583L94.7436 88.3014L96.8302 87.4937L95.0328 82.8506Z" fill="#E4897B"/>
<path d="M104.36 88.896H102.161L101.351 83.8041H103.551L104.36 88.896Z" fill="#E4897B"/>
<path d="M102.017 88.6419H104.492C104.534 88.6413 104.576 88.656 104.608 88.6833C104.641 88.7107 104.663 88.7488 104.67 88.7909L104.991 90.7482C104.998 90.797 104.994 90.8468 104.98 90.8941C104.965 90.9413 104.941 90.9849 104.908 91.0218C104.876 91.0587 104.835 91.0881 104.79 91.1079C104.745 91.1278 104.696 91.1376 104.646 91.1367C103.785 91.1221 103.367 91.0724 102.28 91.0724C101.611 91.0724 99.5926 91.1425 98.6694 91.1425C97.7463 91.1425 97.6791 90.2281 98.0618 90.1464C99.7766 89.7753 101.085 89.27 101.655 88.7763C101.757 88.6917 101.885 88.6443 102.017 88.6419Z" fill="#1C252E"/>
<path d="M94.6965 87.8589L97.0335 87.1782C97.0744 87.1646 97.1189 87.1663 97.1586 87.183C97.1983 87.1996 97.2307 87.2301 97.2497 87.2688L98.1261 89.0216C98.147 89.066 98.1578 89.1145 98.1578 89.1635C98.1578 89.2126 98.1469 89.2611 98.126 89.3054C98.105 89.3498 98.0745 89.389 98.0367 89.4203C97.9988 89.4515 97.9546 89.474 97.907 89.4861C97.0598 89.7169 96.4872 89.8629 95.4268 90.1726C94.6906 90.3859 93.9457 90.7335 93.2183 90.9643C92.7187 91.125 91.5385 91.1308 90.9279 91.1308C90.0252 91.1308 89.8237 90.1784 90.2093 90.1346C91.1879 90.0236 91.3223 90.0762 91.8628 89.8045C92.7456 89.4168 93.5458 88.8635 94.2203 88.1744C94.349 88.0298 94.5131 87.9211 94.6965 87.8589Z" fill="#1C252E"/>
<path d="M91.4334 17.6795C91.2522 18.1382 91.0799 18.5384 90.8842 18.9591C90.6884 19.3798 90.4927 19.7829 90.2853 20.189C89.8657 21.0128 89.4005 21.8125 88.8918 22.5845C88.3612 23.4067 87.7463 24.1713 87.0572 24.866C86.6656 25.2623 86.2282 25.6104 85.7543 25.9031C85.1596 26.273 84.4792 26.4824 83.7794 26.5108C83.5838 26.5159 83.3882 26.5022 83.1952 26.4699C83.0264 26.4424 82.8596 26.4043 82.6956 26.3559C82.4171 26.271 82.1455 26.1646 81.8835 26.0375C81.4345 25.8122 81.0021 25.5555 80.5893 25.2692C79.8318 24.7425 79.1097 24.1668 78.4275 23.5456C77.1029 22.3464 75.8668 21.0527 74.7291 19.6748L75.8626 18.5355C77.2035 19.593 78.5795 20.6506 79.9525 21.6146C80.6214 22.0892 81.3136 22.5299 82.0266 22.935C82.3484 23.1183 82.6833 23.2775 83.0287 23.4112C83.2179 23.5061 83.4275 23.5533 83.6392 23.5485C83.8064 23.499 83.963 23.4187 84.1008 23.3119C84.3536 23.1249 84.5866 22.9124 84.7961 22.678C85.2988 22.1023 85.7486 21.4824 86.1399 20.8258C86.5606 20.1422 86.9549 19.4207 87.3289 18.6845C87.5158 18.3164 87.697 17.9425 87.8722 17.5685C88.0475 17.1946 88.2257 16.8002 88.3747 16.4555L91.4334 17.6795Z" fill="#E4897B"/>
<path d="M76.1751 19.2396L75.8625 17.5072L73.6335 18.8744C73.6335 18.8744 74.3376 19.967 75.0796 19.9845L76.1751 19.2396Z" fill="#E4897B"/>
<path d="M74.8225 16.4642L73.0814 17.6474L73.6306 18.8743L75.8596 17.5072L74.8225 16.4642Z" fill="#E4897B"/>
<path d="M92.4557 15.4418C92.9932 17.44 90.066 21.4539 90.066 21.4539L86.2216 19.2979C86.2216 19.2979 86.9373 17.6474 87.8166 15.9676C89.2335 13.2537 91.8393 13.1631 92.4557 15.4418Z" fill="#00A76F"/>
<path opacity="0.6" d="M92.4557 15.4418C92.9932 17.44 90.066 21.4539 90.066 21.4539L86.2216 19.2979C86.2216 19.2979 86.9373 17.6474 87.8166 15.9676C89.2335 13.2537 91.8393 13.1631 92.4557 15.4418Z" fill="#FAFAFA"/>
<path d="M87.7552 20.1539L89.2656 21.0011L89.5285 16.3679C88.6521 17.0427 88.0299 19.0759 87.7552 20.1539Z" fill="#00A76F"/>
<path opacity="0.3" d="M87.7552 20.1539L89.2656 21.0011L89.5285 16.3679C88.6521 17.0427 88.0299 19.0759 87.7552 20.1539Z" fill="#FAFAFA"/>
<path d="M95.3444 83.2457L93.2513 84.0538L94.1783 86.4548L96.2713 85.6467L95.3444 83.2457Z" fill="#CE6F64"/>
<path d="M103.554 83.8041H101.351L101.769 86.4304H103.969L103.554 83.8041Z" fill="#CE6F64"/>
<path d="M102.26 13.8234C100.019 22.3332 100.639 31.144 100.452 32.9494H88.6873C86.9345 20.5804 89.9318 13.9373 89.9318 13.9373C89.9318 13.9373 90.8666 13.6861 92.0702 13.4903L92.4062 13.4407C92.7129 13.3969 93.0284 13.356 93.3498 13.3267C95.0155 13.2303 96.6854 13.2303 98.3511 13.3267C98.6111 13.3267 98.874 13.3589 99.1311 13.3793L99.4379 13.4085C100.954 13.5575 102.26 13.8234 102.26 13.8234Z" fill="#00A76F"/>
<path opacity="0.6" d="M102.26 13.8234C100.019 22.3332 100.639 31.144 100.452 32.9494H88.6873C86.9345 20.5804 89.9318 13.9373 89.9318 13.9373C89.9318 13.9373 90.8666 13.6861 92.0702 13.4903L92.4062 13.4407C92.7129 13.3969 93.0284 13.356 93.3498 13.3267C95.0155 13.2303 96.6854 13.2303 98.3511 13.3267C98.6111 13.3267 98.874 13.3589 99.1311 13.3793L99.4379 13.4085C100.954 13.5575 102.26 13.8234 102.26 13.8234Z" fill="#FAFAFA"/>
<path d="M88.3134 29.6015C88.3543 30.1293 88.4059 30.6707 88.4682 31.2258L97.2322 28.3862C98.5984 27.9788 99.7853 27.1186 100.598 25.9469C100.63 25.1669 100.674 24.346 100.741 23.4901C100.77 23.0723 100.808 22.6458 100.846 22.2134C100.884 21.7811 100.936 21.3049 100.989 20.8433L88.3134 29.6015Z" fill="#00A76F"/>
<path opacity="0.3" d="M88.3134 29.6015C88.3543 30.1293 88.4059 30.6707 88.4682 31.2258L97.2322 28.3862C98.5984 27.9788 99.7853 27.1186 100.598 25.9469C100.63 25.1669 100.674 24.346 100.741 23.4901C100.77 23.0723 100.808 22.6458 100.846 22.2134C100.884 21.7811 100.936 21.3049 100.989 20.8433L88.3134 29.6015Z" fill="#FAFAFA"/>
<path d="M99.131 13.3793L99.0141 13.6306C98.9761 13.7153 98.0442 15.6901 94.6175 15.6901C94.1618 15.6901 92.7741 15.6901 92.3388 14.7202C92.2556 14.5151 92.2184 14.2941 92.23 14.073C92.2416 13.8519 92.3017 13.636 92.406 13.4407L92.0701 13.4903C91.9795 13.7038 91.9327 13.9333 91.9327 14.1652C91.9327 14.3971 91.9795 14.6266 92.0701 14.84C92.5813 15.9822 94.115 15.9823 94.6146 15.9823C98.2254 15.9823 99.2361 13.8409 99.2887 13.7503L99.4436 13.4085L99.131 13.3793Z" fill="#FAFAFA"/>
<path d="M98.1845 7.6944C97.7755 9.30406 97.2876 12.2517 98.351 13.3267C98.351 13.3267 97.609 14.9598 94.6175 14.9598C91.8861 14.9598 93.3497 13.3267 93.3497 13.3267C95.1696 12.8973 95.2018 11.5739 94.9622 10.3178L98.1845 7.6944Z" fill="#E4897B"/>
<path d="M96.8699 8.76367L94.9623 10.3149C95.0228 10.6033 95.057 10.8967 95.0645 11.1913C95.6225 11.7464 96.7414 10.3412 96.8582 9.62255C96.9134 9.33925 96.9174 9.04836 96.8699 8.76367Z" fill="#CE6F64"/>
<path d="M91.524 6.91438C91.5704 7.17525 91.6705 7.42365 91.8178 7.64388C91.9651 7.86412 92.1565 8.05141 92.3799 8.19393C92.9875 8.57955 93.5484 8.09168 93.5747 7.41393C93.6098 6.80629 93.3352 5.87146 92.6253 5.76045C92.4707 5.73736 92.3127 5.75178 92.1648 5.80248C92.0169 5.85319 91.8833 5.9387 91.7754 6.05181C91.6674 6.16492 91.5882 6.30232 91.5445 6.45243C91.5007 6.60255 91.4937 6.76098 91.524 6.91438Z" fill="#CE6F64"/>
<path d="M93.1394 2.66675C92.0147 3.09035 91.3311 7.39641 92.6574 8.12966C93.9837 8.86292 95.2691 1.86631 93.1394 2.66675Z" fill="#1C252E"/>
<path d="M91.2405 4.15958C92.0702 5.03598 96.3003 3.9843 96.4609 2.47689C96.6216 0.969473 89.6718 2.51194 91.2405 4.15958Z" fill="#1C252E"/>
<path d="M98.1232 5.08273C98.0443 7.27666 98.1086 8.55913 97.0393 9.75688C96.7112 10.1565 96.279 10.4578 95.7905 10.6274C95.302 10.7971 94.7761 10.8284 94.2709 10.7182C93.7656 10.6079 93.3007 10.3602 92.9273 10.0024C92.5539 9.64461 92.2866 9.19065 92.1549 8.69059C91.6407 6.76835 91.8627 3.50521 93.9603 2.45937C94.4003 2.21771 94.8971 2.09823 95.3989 2.11333C95.9008 2.12843 96.3894 2.27756 96.8142 2.54523C97.239 2.81291 97.5843 3.18938 97.8145 3.63558C98.0447 4.08178 98.1513 4.58145 98.1232 5.08273Z" fill="#E4897B"/>
<path d="M96.7998 0.52837C98.351 0.145674 98.6899 0.583875 98.76 1.64432C98.8301 2.70477 100.244 2.40972 99.7679 4.01061C99.5459 4.76724 98.9762 4.70297 99.3239 5.59398C99.7212 6.61937 97.3636 7.86094 96.8086 7.85802C95.8942 7.85802 96.0958 5.9533 96.8407 4.22095C97.3987 2.92387 96.0081 3.2832 94.4131 3.76814C90.8198 4.8578 88.4389 1.7232 90.6679 0.22163C91.8481 -0.575896 95.0938 1.07758 96.7998 0.52837Z" fill="#1C252E"/>
<path d="M99.1631 7.40813C98.8842 7.89517 98.4329 8.25999 97.8982 8.4306C97.1942 8.64678 96.864 8.02745 97.0773 7.35846C97.2701 6.75375 97.8719 5.91532 98.5672 5.9942C99.2625 6.07307 99.502 6.80341 99.1631 7.40813Z" fill="#E4897B"/>
<path d="M88.6873 32.9377C88.6873 32.9377 86.7124 50.6089 86.5576 57.3163C86.3969 64.2954 93.2504 86.0623 93.2504 86.0623L96.756 84.5871C96.756 84.5871 92.6661 64.7015 93.2504 57.8509C93.858 50.3928 96.42 32.9377 96.42 32.9377H88.6873Z" fill="#1C252E"/>
<path d="M93.5921 37.8017C92.0204 41.0678 93.0809 47.524 93.9339 51.3509C94.2582 48.6516 94.6409 45.7186 95.0061 43.0046C94.971 38.83 94.6467 35.6107 93.5921 37.8017Z" fill="#1C252E"/>
<path d="M96.6041 83.4536C96.6187 83.4536 97.019 84.5724 97.019 84.5724L92.9758 86.2697L92.3361 85.0866L96.6041 83.4536Z" fill="#00A76F"/>
<path opacity="0.6" d="M96.6041 83.4536C96.6187 83.4536 97.019 84.5724 97.019 84.5724L92.9758 86.2697L92.3361 85.0866L96.6041 83.4536Z" fill="#FAFAFA"/>
<path d="M92.8589 32.9377C92.8589 32.9377 94.3692 49.7442 95.3712 56.0426C96.4667 62.9399 100.773 85.9104 100.773 85.9104H104.804C104.804 85.9104 102.388 63.495 101.933 56.6678C101.439 49.2564 100.451 32.9377 100.451 32.9377H92.8589Z" fill="#1C252E"/>
<path d="M104.866 84.7039C104.88 84.7039 105 85.998 105 85.998H100.571L100.256 84.5374L104.866 84.7039Z" fill="#00A76F"/>
<path opacity="0.6" d="M104.866 84.7039C104.88 84.7039 105 85.998 105 85.998H100.571L100.256 84.5374L104.866 84.7039Z" fill="#FAFAFA"/>
<path d="M103.323 83.5412C103.314 83.5412 103.305 83.5376 103.298 83.531C103.292 83.5244 103.288 83.5155 103.288 83.5062C103.265 83.3046 101.088 63.0568 100.679 56.922C100.235 50.2642 99.3413 35.5056 99.3325 35.3566C99.3321 35.3516 99.3327 35.3466 99.3343 35.3419C99.3358 35.3371 99.3383 35.3327 99.3415 35.3289C99.3448 35.3251 99.3488 35.322 99.3532 35.3197C99.3577 35.3175 99.3626 35.3161 99.3676 35.3157C99.3772 35.3157 99.3864 35.3193 99.3934 35.3258C99.4005 35.3323 99.4048 35.3412 99.4056 35.3508C99.4056 35.4998 100.308 50.2496 100.752 56.9161C101.161 63.051 103.338 83.2842 103.361 83.5003C103.362 83.5052 103.362 83.5101 103.36 83.5149C103.359 83.5196 103.357 83.5241 103.354 83.5279C103.351 83.5318 103.347 83.535 103.343 83.5373C103.339 83.5395 103.334 83.5409 103.329 83.5412H103.323Z" fill="#00A76F"/>
<path opacity="0.5" d="M103.323 83.5412C103.314 83.5412 103.305 83.5376 103.298 83.531C103.292 83.5244 103.288 83.5155 103.288 83.5062C103.265 83.3046 101.088 63.0568 100.679 56.922C100.235 50.2642 99.3413 35.5056 99.3325 35.3566C99.3321 35.3516 99.3327 35.3466 99.3343 35.3419C99.3358 35.3371 99.3383 35.3327 99.3415 35.3289C99.3448 35.3251 99.3488 35.322 99.3532 35.3197C99.3577 35.3175 99.3626 35.3161 99.3676 35.3157C99.3772 35.3157 99.3864 35.3193 99.3934 35.3258C99.4005 35.3323 99.4048 35.3412 99.4056 35.3508C99.4056 35.4998 100.308 50.2496 100.752 56.9161C101.161 63.051 103.338 83.2842 103.361 83.5003C103.362 83.5052 103.362 83.5101 103.36 83.5149C103.359 83.5196 103.357 83.5241 103.354 83.5279C103.351 83.5318 103.347 83.535 103.343 83.5373C103.339 83.5395 103.334 83.5409 103.329 83.5412H103.323Z" fill="black"/>
<path d="M94.8512 5.96793C94.8512 6.14613 94.7665 6.29804 94.6496 6.3068C94.5327 6.31557 94.4363 6.18119 94.4334 6.01467C94.4305 5.84815 94.5181 5.68456 94.635 5.6758C94.7518 5.66703 94.8512 5.78973 94.8512 5.96793Z" fill="#1C252E"/>
<path d="M92.8472 6.13437C92.8472 6.31257 92.7624 6.46448 92.6456 6.47325C92.5287 6.48201 92.4323 6.34763 92.4294 6.18111C92.4265 6.0146 92.5141 5.851 92.631 5.84224C92.7478 5.83347 92.8413 5.95617 92.8472 6.13437Z" fill="#1C252E"/>
<path d="M93.4841 6.16943C93.2857 6.73293 93.0147 7.26815 92.6779 7.76157C92.9963 8.02741 93.525 7.8492 93.525 7.8492L93.4841 6.16943Z" fill="#DE5753"/>
<path d="M93.7353 8.57954C93.7219 8.57956 93.7089 8.57443 93.6991 8.56519C93.6894 8.55595 93.6835 8.54331 93.6827 8.52988C93.6827 8.51565 93.6882 8.50196 93.6979 8.49163C93.7077 8.4813 93.7211 8.47512 93.7353 8.47437C93.9596 8.45808 94.1774 8.3916 94.3726 8.27986C94.5678 8.16811 94.7354 8.01395 94.863 7.82876C94.8695 7.81714 94.8805 7.80861 94.8934 7.80505C94.9062 7.80148 94.92 7.80318 94.9316 7.80977C94.9432 7.81636 94.9518 7.82729 94.9553 7.84016C94.9589 7.85304 94.9572 7.8668 94.9506 7.87842C94.815 8.08035 94.635 8.24853 94.4244 8.37007C94.2137 8.4916 93.978 8.56326 93.7353 8.57954Z" fill="#1C252E"/>
<path d="M95.4764 4.83443C95.4604 4.835 95.4444 4.83188 95.4297 4.82529C95.415 4.81871 95.402 4.80884 95.3917 4.79645C95.3118 4.69378 95.2087 4.61144 95.091 4.55611C94.9732 4.50077 94.844 4.47402 94.714 4.47803C94.7007 4.47964 94.6872 4.47856 94.6744 4.47484C94.6615 4.47113 94.6495 4.46485 94.6392 4.45639C94.6288 4.44793 94.6203 4.43747 94.614 4.42562C94.6078 4.41378 94.604 4.4008 94.603 4.38746C94.6021 4.35944 94.6118 4.33212 94.6302 4.31098C94.6487 4.28985 94.6744 4.27647 94.7023 4.27353C94.8665 4.26605 95.0302 4.29793 95.1796 4.36654C95.329 4.43514 95.4598 4.53847 95.5612 4.66791C95.5696 4.6785 95.5758 4.6907 95.5794 4.70377C95.5829 4.71684 95.5838 4.73049 95.5818 4.7439C95.5799 4.75731 95.5753 4.77018 95.5682 4.78173C95.5611 4.79328 95.5518 4.80326 95.5407 4.81106C95.5224 4.8256 95.4998 4.8338 95.4764 4.83443Z" fill="#1C252E"/>
<path d="M91.9795 5.13532C91.9646 5.13149 91.9507 5.12452 91.9386 5.11487C91.9289 5.10535 91.9212 5.09398 91.9159 5.08144C91.9107 5.0689 91.908 5.05544 91.908 5.04183C91.908 5.02823 91.9107 5.01476 91.9159 5.00222C91.9212 4.98968 91.9289 4.97832 91.9386 4.9688C92.0399 4.83208 92.1721 4.72133 92.3245 4.64566C92.4768 4.56999 92.6449 4.53156 92.815 4.53352C92.8285 4.53418 92.8417 4.53767 92.8538 4.54376C92.8659 4.54985 92.8765 4.5584 92.885 4.56887C92.8936 4.57934 92.8998 4.59148 92.9034 4.60451C92.9069 4.61755 92.9077 4.63118 92.9056 4.64453C92.9013 4.67213 92.8871 4.69719 92.8655 4.71497C92.844 4.73274 92.8167 4.74198 92.7888 4.74094C92.6554 4.74396 92.5246 4.77737 92.4061 4.83863C92.2876 4.89989 92.1847 4.98737 92.1052 5.09442C92.0911 5.11344 92.0714 5.1276 92.0489 5.13493C92.0264 5.14226 92.0021 5.1424 91.9795 5.13532Z" fill="#1C252E"/>
<path d="M103.39 16.698L100.349 15.8888C100.349 15.8888 97.3695 23.2243 96.3178 23.7034C94.8863 24.3548 91.258 26.6247 89.7185 27.6969C89.6308 28.0591 89.698 29.029 89.8938 29.2919C92.523 28.8157 97.5564 26.8789 98.6081 25.8915C101.004 23.6479 103.39 16.698 103.39 16.698Z" fill="#E4897B"/>
<path d="M104.182 15.8595C104.985 18.4479 101.845 21.9944 101.845 21.9944L97.5067 20.224C98.0186 18.7249 98.6106 17.2544 99.28 15.8187C100.615 12.947 103.37 13.2449 104.182 15.8595Z" fill="#00A76F"/>
<path opacity="0.6" d="M104.182 15.8595C104.985 18.4479 101.845 21.9944 101.845 21.9944L97.5067 20.224C98.0186 18.7249 98.6106 17.2544 99.28 15.8187C100.615 12.947 103.37 13.2449 104.182 15.8595Z" fill="#FAFAFA"/>
<path d="M101.278 89.0274C101.13 89.041 100.982 89.0017 100.86 88.9164C100.823 88.8824 100.795 88.8393 100.779 88.7911C100.763 88.743 100.76 88.6915 100.77 88.6418C100.771 88.6107 100.781 88.5806 100.798 88.5545C100.815 88.5283 100.839 88.5071 100.866 88.4928C101.115 88.3701 101.801 88.8054 101.877 88.8551C101.886 88.8606 101.892 88.8686 101.897 88.8779C101.901 88.8872 101.902 88.8976 101.9 88.9077C101.898 88.918 101.892 88.9273 101.884 88.9345C101.877 88.9418 101.867 88.9467 101.857 88.9486C101.667 88.9966 101.473 89.0231 101.278 89.0274ZM100.986 88.5746C100.964 88.5697 100.941 88.5697 100.919 88.5746C100.908 88.5807 100.898 88.5895 100.892 88.6003C100.885 88.611 100.881 88.6233 100.881 88.636C100.874 88.67 100.876 88.7052 100.886 88.7384C100.896 88.7715 100.914 88.8016 100.939 88.8259C101.185 88.9373 101.464 88.9509 101.719 88.8638C101.492 88.7159 101.236 88.6165 100.968 88.5717L100.986 88.5746Z" fill="#00A76F"/>
<path d="M101.836 88.9486H101.813C101.591 88.823 101.179 88.341 101.228 88.0956C101.239 88.0572 101.262 88.0234 101.294 87.9992C101.325 87.9749 101.364 87.9616 101.404 87.9612C101.443 87.9552 101.482 87.9581 101.52 87.9697C101.557 87.9814 101.591 88.0014 101.62 88.0284C101.865 88.2358 101.88 88.8697 101.88 88.9048C101.88 88.9195 101.874 88.9336 101.864 88.944C101.853 88.9544 101.839 88.9603 101.824 88.9603L101.836 88.9486ZM101.445 88.0576H101.421C101.354 88.0576 101.345 88.0985 101.342 88.1102C101.304 88.2562 101.564 88.6185 101.781 88.7909C101.78 88.544 101.704 88.3032 101.562 88.1014C101.529 88.073 101.488 88.0574 101.445 88.0576Z" fill="#00A76F"/>
<path d="M93.5104 88.6623C93.3326 88.7246 93.1389 88.7246 92.9612 88.6623C92.9186 88.6423 92.882 88.6116 92.8548 88.5732C92.8277 88.5348 92.811 88.49 92.8063 88.4432C92.8031 88.4146 92.8067 88.3856 92.8168 88.3587C92.827 88.3318 92.8434 88.3076 92.8648 88.2883C93.1014 88.0809 94.0538 88.3059 94.1619 88.3322C94.1718 88.3349 94.1807 88.3406 94.1874 88.3484C94.1942 88.3562 94.1985 88.3658 94.1998 88.376C94.2003 88.3869 94.1974 88.3978 94.1917 88.4071C94.186 88.4165 94.1776 88.424 94.1677 88.4286C93.9559 88.5258 93.736 88.604 93.5104 88.6623ZM93.0371 88.3146C93.0031 88.3205 92.971 88.3345 92.9436 88.3555C92.9351 88.3637 92.9288 88.3738 92.9252 88.385C92.9216 88.3963 92.9209 88.4082 92.9232 88.4198C92.9239 88.45 92.9327 88.4795 92.9486 88.5052C92.9645 88.5309 92.987 88.5518 93.0138 88.5659C93.1686 88.6506 93.5308 88.5834 93.9924 88.3906C93.6808 88.3101 93.3576 88.2844 93.0371 88.3146Z" fill="#00A76F"/>
<path d="M94.1677 88.4228H94.1472C93.8551 88.3702 93.2708 88.0342 93.2533 87.783C93.2533 87.7246 93.2796 87.6428 93.4169 87.5931C93.5128 87.5603 93.6177 87.5666 93.709 87.6106C94.0275 87.7684 94.194 88.3293 94.1998 88.3527C94.2039 88.3608 94.2061 88.3698 94.2061 88.3789C94.2061 88.3881 94.2039 88.3971 94.1998 88.4052C94.1962 88.4105 94.1914 88.4148 94.1858 88.4178C94.1802 88.4208 94.174 88.4225 94.1677 88.4228ZM93.4782 87.6866H93.4461C93.3555 87.7187 93.3585 87.7567 93.3585 87.7684C93.3585 87.9174 93.7821 88.1949 94.0771 88.2884C94.0078 88.0544 93.8642 87.8494 93.6681 87.7041C93.6094 87.6741 93.5414 87.6679 93.4782 87.6866Z" fill="#00A76F"/>
<path d="M66.5143 31.3134C66.7648 30.5998 67.2265 29.9792 67.838 29.5341C68.4495 29.089 69.182 28.8405 69.9381 28.8215H99.5255C99.9336 28.8119 100.339 28.8916 100.713 29.0552C101.087 29.2188 101.421 29.4622 101.691 29.7684C101.961 30.0746 102.16 30.4361 102.276 30.8277C102.391 31.2192 102.42 31.6313 102.359 32.035L95.7832 87.929C95.6641 88.8039 95.2374 89.6077 94.5795 90.1966C93.9216 90.7854 93.0756 91.1207 92.1929 91.1425H17.9908C17.5826 91.1527 17.177 91.0732 16.8028 90.9098C16.4285 90.7464 16.0945 90.503 15.8244 90.1967C15.5543 89.8904 15.3546 89.5287 15.2393 89.1369C15.124 88.7451 15.096 88.3328 15.1571 87.929L20.7603 40.3491C20.8794 39.4743 21.3061 38.6704 21.964 38.0816C22.6219 37.4928 23.4679 37.1574 24.3506 37.1357H58.5303C62.0125 37.1357 65.3283 34.7226 66.5143 31.3134Z" fill="#00A76F"/>
<path opacity="0.1" d="M66.5143 31.3134C66.7648 30.5998 67.2265 29.9792 67.838 29.5341C68.4495 29.089 69.182 28.8405 69.9381 28.8215H99.5255C99.9336 28.8119 100.339 28.8916 100.713 29.0552C101.087 29.2188 101.421 29.4622 101.691 29.7684C101.961 30.0746 102.16 30.4361 102.276 30.8277C102.391 31.2192 102.42 31.6313 102.359 32.035L95.7832 87.929C95.6641 88.8039 95.2374 89.6077 94.5795 90.1966C93.9216 90.7854 93.0756 91.1207 92.1929 91.1425H17.9908C17.5826 91.1527 17.177 91.0732 16.8028 90.9098C16.4285 90.7464 16.0945 90.503 15.8244 90.1967C15.5543 89.8904 15.3546 89.5287 15.2393 89.1369C15.124 88.7451 15.096 88.3328 15.1571 87.929L20.7603 40.3491C20.8794 39.4743 21.3061 38.6704 21.964 38.0816C22.6219 37.4928 23.4679 37.1574 24.3506 37.1357H58.5303C62.0125 37.1357 65.3283 34.7226 66.5143 31.3134Z" fill="#FAFAFA"/>
<path d="M40.0647 6.56756L0.105103 34.4334L26.4804 72.2556L66.44 44.3897L40.0647 6.56756Z" fill="#00A76F"/>
<path opacity="0.8" d="M40.0647 6.56756L0.105103 34.4334L26.4804 72.2556L66.44 44.3897L40.0647 6.56756Z" fill="#FAFAFA"/>
<path d="M39.9596 7.15557L0 35.0214L26.3753 72.8436L66.3349 44.9778L39.9596 7.15557Z" fill="#FAFAFA"/>
<path d="M39.1455 12.137L4.95117 35.9824L23.1185 62.0342L57.3127 38.1888L39.1455 12.137Z" fill="#00A76F"/>
<path opacity="0.8" d="M39.1455 12.137L4.95117 35.9824L23.1185 62.0342L57.3127 38.1888L39.1455 12.137Z" fill="#FAFAFA"/>
<path d="M26.0536 34.5619C26.7149 35.5105 27.0798 36.6338 27.1022 37.7899C27.1247 38.9459 26.8036 40.0826 26.1797 41.056C25.5558 42.0295 24.657 42.796 23.5973 43.2584C22.5375 43.7208 21.3644 43.8583 20.2264 43.6537C19.0884 43.449 18.0367 42.9113 17.2045 42.1086C16.3723 41.3059 15.797 40.2743 15.5513 39.1445C15.3057 38.0146 15.4008 36.8373 15.8247 35.7615C16.2485 34.6858 16.982 33.7599 17.9323 33.1013C19.2036 32.2201 20.7725 31.879 22.2949 32.1528C23.8173 32.4267 25.169 33.293 26.0536 34.5619Z" fill="#00A76F"/>
<path opacity="0.1" d="M26.0536 34.5619C26.7149 35.5105 27.0798 36.6338 27.1022 37.7899C27.1247 38.9459 26.8036 40.0826 26.1797 41.056C25.5558 42.0295 24.657 42.796 23.5973 43.2584C22.5375 43.7208 21.3644 43.8583 20.2264 43.6537C19.0884 43.449 18.0367 42.9113 17.2045 42.1086C16.3723 41.3059 15.797 40.2743 15.5513 39.1445C15.3057 38.0146 15.4008 36.8373 15.8247 35.7615C16.2485 34.6858 16.982 33.7599 17.9323 33.1013C19.2036 32.2201 20.7725 31.879 22.2949 32.1528C23.8173 32.4267 25.169 33.293 26.0536 34.5619Z" fill="#FAFAFA"/>
<path d="M47.8644 31.9882C46.9841 31.1113 45.9217 30.4387 44.7525 30.0181C43.5832 29.5976 42.3358 29.4394 41.0986 29.5547C41.0606 29.5022 41.0314 29.4437 40.9934 29.3882C39.8618 27.7454 38.1868 26.5546 36.2634 26.0255C34.34 25.4965 32.2916 25.6631 30.4789 26.4961C28.6663 27.3291 27.2058 28.775 26.3546 30.5791C25.5034 32.3833 25.3162 34.4299 25.8258 36.3586C25.5705 36.4789 25.3253 36.6196 25.0926 36.7792C24.2596 37.3584 23.6195 38.1741 23.2549 39.1208C22.8904 40.0676 22.8182 41.102 23.0476 42.0902C21.9326 42.5273 20.9825 43.3027 20.3308 44.3075C19.6611 45.3065 19.298 46.4793 19.2861 47.6819C19.2741 48.8844 19.6139 50.0643 20.2636 51.0763C20.7111 51.7485 21.2884 52.3246 21.9616 52.7707C22.6348 53.2168 23.3903 53.5239 24.1838 53.6741C24.9772 53.8243 25.7927 53.8146 26.5824 53.6454C27.372 53.4762 28.1199 53.151 28.7822 52.6889L38.6125 45.8325L47.619 39.5516C48.6205 38.8676 49.3122 37.8167 49.5446 36.6264C49.7769 35.4362 49.5312 34.2023 48.8606 33.1918L48.8343 33.1509C48.5468 32.7348 48.2222 32.3457 47.8644 31.9882Z" fill="#00A76F"/>
<path opacity="0.3" d="M47.8644 31.9882C46.9841 31.1113 45.9217 30.4387 44.7525 30.0181C43.5832 29.5976 42.3358 29.4394 41.0986 29.5547C41.0606 29.5022 41.0314 29.4437 40.9934 29.3882C39.8618 27.7454 38.1868 26.5546 36.2634 26.0255C34.34 25.4965 32.2916 25.6631 30.4789 26.4961C28.6663 27.3291 27.2058 28.775 26.3546 30.5791C25.5034 32.3833 25.3162 34.4299 25.8258 36.3586C25.5705 36.4789 25.3253 36.6196 25.0926 36.7792C24.2596 37.3584 23.6195 38.1741 23.2549 39.1208C22.8904 40.0676 22.8182 41.102 23.0476 42.0902C21.9326 42.5273 20.9825 43.3027 20.3308 44.3075C19.6611 45.3065 19.298 46.4793 19.2861 47.6819C19.2741 48.8844 19.6139 50.0643 20.2636 51.0763C20.7111 51.7485 21.2884 52.3246 21.9616 52.7707C22.6348 53.2168 23.3903 53.5239 24.1838 53.6741C24.9772 53.8243 25.7927 53.8146 26.5824 53.6454C27.372 53.4762 28.1199 53.151 28.7822 52.6889L38.6125 45.8325L47.619 39.5516C48.6205 38.8676 49.3122 37.8167 49.5446 36.6264C49.7769 35.4362 49.5312 34.2023 48.8606 33.1918L48.8343 33.1509C48.5468 32.7348 48.2222 32.3457 47.8644 31.9882Z" fill="black"/>
<g style="mix-blend-mode:multiply">
<path d="M41.3271 13.2317L0.382446 39.6289L25.3676 78.3835L66.3123 51.9863L41.3271 13.2317Z" fill="#00A76F"/>
</g>
<path opacity="0.8" d="M41.3271 13.2317L0.382446 39.6289L25.3676 78.3835L66.3123 51.9863L41.3271 13.2317Z" fill="#FAFAFA"/>
<path d="M41.2038 13.8196L0.259155 40.2168L25.2443 78.9714L66.189 52.5742L41.2038 13.8196Z" fill="#FAFAFA"/>
<path d="M40.2107 18.7689L5.17346 41.3575L22.3832 68.0516L57.4204 45.463L40.2107 18.7689Z" fill="#00A76F"/>
<path opacity="0.8" d="M40.2107 18.7689L5.17346 41.3575L22.3832 68.0516L57.4204 45.463L40.2107 18.7689Z" fill="#FAFAFA"/>
<path d="M27.1064 45.0848C27.7793 41.9355 25.7717 38.837 22.6224 38.1642C19.4731 37.4913 16.3747 39.4989 15.7018 42.6482C15.029 45.7975 17.0365 48.8959 20.1858 49.5688C23.3351 50.2416 26.4336 48.2341 27.1064 45.0848Z" fill="#00A76F"/>
<path opacity="0.1" d="M27.1064 45.0848C27.7793 41.9355 25.7717 38.837 22.6224 38.1642C19.4731 37.4913 16.3747 39.4989 15.7018 42.6482C15.029 45.7975 17.0365 48.8959 20.1858 49.5688C23.3351 50.2416 26.4336 48.2341 27.1064 45.0848Z" fill="#FAFAFA"/>
<path d="M48.1975 38.9323C47.3492 38.023 46.3111 37.3116 45.1569 36.8486C44.0028 36.3857 42.7608 36.1824 41.5193 36.2534C41.4843 36.195 41.458 36.1366 41.42 36.0811C40.3479 34.398 38.7162 33.1473 36.8123 32.5496C34.9084 31.9518 32.8546 32.0453 31.0129 32.8135C29.1712 33.5818 27.6598 34.9755 26.7451 36.749C25.8304 38.5225 25.571 40.562 26.0128 42.508C25.7519 42.6169 25.5007 42.7478 25.262 42.8995C24.4104 43.4486 23.7427 44.2402 23.3449 45.1721C22.9472 46.1041 22.8375 47.1338 23.0301 48.1287C21.8993 48.5226 20.9211 49.2626 20.2344 50.2437C19.5287 51.2172 19.123 52.3759 19.0675 53.577C19.012 54.7781 19.3089 55.9692 19.9218 57.0037C20.3436 57.6928 20.8988 58.2906 21.5548 58.7622C22.2109 59.2337 22.9545 59.5694 23.7421 59.7496C24.5297 59.9297 25.3453 59.9507 26.1411 59.8113C26.9369 59.6718 27.6968 59.3748 28.3762 58.9376L38.4694 52.4289L47.7009 46.4781C48.7239 45.8286 49.4505 44.8029 49.7238 43.6223C49.9971 42.4417 49.7951 41.201 49.1615 40.168L49.1323 40.1271C48.8584 39.7007 48.5454 39.3007 48.1975 38.9323Z" fill="#00A76F"/>
<path opacity="0.3" d="M48.1975 38.9323C47.3492 38.023 46.3111 37.3116 45.1569 36.8486C44.0028 36.3857 42.7608 36.1824 41.5193 36.2534C41.4843 36.195 41.458 36.1366 41.42 36.0811C40.3479 34.398 38.7162 33.1473 36.8123 32.5496C34.9084 31.9518 32.8546 32.0453 31.0129 32.8135C29.1712 33.5818 27.6598 34.9755 26.7451 36.749C25.8304 38.5225 25.571 40.562 26.0128 42.508C25.7519 42.6169 25.5007 42.7478 25.262 42.8995C24.4104 43.4486 23.7427 44.2402 23.3449 45.1721C22.9472 46.1041 22.8375 47.1338 23.0301 48.1287C21.8993 48.5226 20.9211 49.2626 20.2344 50.2437C19.5287 51.2172 19.123 52.3759 19.0675 53.577C19.012 54.7781 19.3089 55.9692 19.9218 57.0037C20.3436 57.6928 20.8988 58.2906 21.5548 58.7622C22.2109 59.2337 22.9545 59.5694 23.7421 59.7496C24.5297 59.9297 25.3453 59.9507 26.1411 59.8113C26.9369 59.6718 27.6968 59.3748 28.3762 58.9376L38.4694 52.4289L47.7009 46.4781C48.7239 45.8286 49.4505 44.8029 49.7238 43.6223C49.9971 42.4417 49.7951 41.201 49.1615 40.168L49.1323 40.1271C48.8584 39.7007 48.5454 39.3007 48.1975 38.9323Z" fill="black"/>
<g style="mix-blend-mode:multiply">
<path d="M77.9374 18.0651L29.5116 23.3771L34.5395 69.2127L82.9653 63.9006L77.9374 18.0651Z" fill="#00A76F"/>
</g>
<path opacity="0.8" d="M77.9374 18.0651L29.5116 23.3771L34.5395 69.2127L82.9653 63.9006L77.9374 18.0651Z" fill="#FAFAFA"/>
<path d="M77.5612 18.5325L29.1354 23.8445L34.1633 69.6801L82.5891 64.368L77.5612 18.5325Z" fill="#FAFAFA"/>
<path d="M74.4616 22.515L33.0226 27.0607L36.4858 58.6321L77.9248 54.0865L74.4616 22.515Z" fill="#00A76F"/>
<path opacity="0.8" d="M74.4616 22.515L33.0226 27.0607L36.4858 58.6321L77.9248 54.0865L74.4616 22.515Z" fill="#FAFAFA"/>
<path d="M77.8024 52.9314L77.928 54.0853L56.4036 56.4487L61.5422 50.3548L66.8035 44.1089L77.8024 52.9314Z" fill="#00A76F"/>
<path opacity="0.3" d="M77.8024 52.9314L77.928 54.0853L56.4036 56.4487L61.5422 50.3548L66.8035 44.1089L77.8024 52.9314Z" fill="black"/>
<path d="M68.6089 55.1078L36.4916 58.6309L36.2112 56.0923L48.8168 41.7982L61.5421 50.3548L68.6089 55.1078Z" fill="#00A76F"/>
<path opacity="0.3" d="M68.6089 55.1078L36.4916 58.6309L36.2112 56.0923L48.8168 41.7982L61.5421 50.3548L68.6089 55.1078Z" fill="black"/>
<path d="M64.6614 34.2441C64.7751 31.5214 62.66 29.2221 59.9373 29.1085C57.2146 28.9949 54.9153 31.1099 54.8017 33.8326C54.6881 36.5553 56.8031 38.8546 59.5258 38.9682C62.2485 39.0818 64.5478 36.9668 64.6614 34.2441Z" fill="#00A76F"/>
<path opacity="0.1" d="M64.6614 34.2441C64.7751 31.5214 62.66 29.2221 59.9373 29.1085C57.2146 28.9949 54.9153 31.1099 54.8017 33.8326C54.6881 36.5553 56.8031 38.8546 59.5258 38.9682C62.2485 39.0818 64.5478 36.9668 64.6614 34.2441Z" fill="#FAFAFA"/>
<g style="mix-blend-mode:multiply" opacity="0.7">
<path d="M53.9086 42.9813C54.1073 41.7251 55.3079 40.8312 56.8066 40.8312H86.4027C88.1759 40.8312 89.7476 42.0727 89.9083 43.6035L93.8755 88.3702C94.042 89.901 92.7362 91.1425 90.9541 91.1425H16.7521C14.9759 91.1425 13.4042 89.901 13.2464 88.3702L10.0593 50.7754C9.89274 49.2446 11.1957 48.006 12.9806 48.006H47.1603C50.6367 48.006 53.4441 45.9231 53.9086 42.9813Z" fill="#00A76F"/>
</g>
<path d="M89.9639 27.5245L87.6269 28.3249L86.1428 29.3708L88.8071 30.4049C88.8071 30.4049 91.2961 30.142 91.8949 28.7923L89.9639 27.5245Z" fill="#E4897B"/>
</svg>
