 <svg width="32" height="32" viewBox="0 0 32 32" fill="none" xmlns="http://www.w3.org/2000/svg">
                              <g clip-path="">
                                <path
                                  d="M10.6682 16C10.6682 13.0546 13.0552 10.6662 16.0006 10.6662C18.946 10.6662 21.3344 13.0546 21.3344 16C21.3344 18.9454 18.946 21.3338 16.0006 21.3338C13.0552 21.3338 10.6682 18.9454 10.6682 16ZM7.78483 16C7.78483 20.5376 11.463 24.2158 16.0006 24.2158C20.5382 24.2158 24.2164 20.5376 24.2164 16C24.2164 11.4624 20.5382 7.78419 16.0006 7.78419C11.463 7.78419 7.78483 11.4624 7.78483 16ZM22.6217 7.45843C22.6215 7.83817 22.734 8.20943 22.9448 8.52526C23.1557 8.84108 23.4555 9.08729 23.8062 9.23275C24.157 9.37821 24.543 9.41639 24.9155 9.34246C25.288 9.26852 25.6302 9.0858 25.8988 8.81739C26.1674 8.54898 26.3504 8.20694 26.4247 7.83453C26.4989 7.46211 26.461 7.07605 26.3158 6.72516C26.1707 6.37426 25.9247 6.0743 25.609 5.8632C25.2934 5.65211 24.9222 5.53935 24.5425 5.5392H24.5417C24.0327 5.53944 23.5446 5.74169 23.1846 6.10155C22.8246 6.4614 22.6221 6.94942 22.6217 7.45843ZM9.53664 29.0236C7.9767 28.9526 7.12883 28.6927 6.56538 28.4732C5.81837 28.1824 5.28538 27.836 4.72499 27.2764C4.16461 26.7168 3.81773 26.1843 3.52819 25.4373C3.30854 24.8741 3.0487 24.026 2.97779 22.466C2.90022 20.7795 2.88474 20.2729 2.88474 16.0001C2.88474 11.7274 2.9015 11.2221 2.97779 9.53421C3.04883 7.97427 3.31059 7.12781 3.52819 6.56294C3.81901 5.81594 4.16538 5.28294 4.72499 4.72256C5.28461 4.16218 5.81709 3.8153 6.56538 3.52576C7.12858 3.30611 7.9767 3.04627 9.53664 2.97536C11.2232 2.89779 11.7298 2.8823 16.0006 2.8823C20.2715 2.8823 20.7786 2.89907 22.4666 2.97536C24.0265 3.0464 24.873 3.30816 25.4378 3.52576C26.1848 3.8153 26.7178 4.16294 27.2782 4.72256C27.8386 5.28218 28.1842 5.81594 28.475 6.56294C28.6947 7.12614 28.9545 7.97427 29.0254 9.53421C29.103 11.2221 29.1185 11.7274 29.1185 16.0001C29.1185 20.2729 29.103 20.7781 29.0254 22.466C28.9544 24.026 28.6932 24.8739 28.475 25.4373C28.1842 26.1843 27.8378 26.7173 27.2782 27.2764C26.7186 27.8355 26.1848 28.1824 25.4378 28.4732C24.8746 28.6929 24.0265 28.9527 22.4666 29.0236C20.78 29.1012 20.2734 29.1167 16.0006 29.1167C11.7279 29.1167 11.2227 29.1012 9.53664 29.0236ZM9.40416 0.096896C7.70086 0.174464 6.53696 0.444544 5.52051 0.840064C4.46784 1.24851 3.5767 1.79648 2.68621 2.68557C1.79571 3.57466 1.24915 4.4672 0.840705 5.51987C0.445185 6.53696 0.175105 7.70022 0.0975369 9.40352C0.0186889 11.1095 0.000640869 11.6549 0.000640869 16C0.000640869 20.3451 0.0186889 20.8905 0.0975369 22.5965C0.175105 24.2999 0.445185 25.463 0.840705 26.4801C1.24915 27.5322 1.79584 28.4257 2.68621 29.3144C3.57658 30.2031 4.46784 30.7503 5.52051 31.1599C6.53888 31.5555 7.70086 31.8255 9.40416 31.9031C11.111 31.9807 11.6556 32 16.0006 32C20.3457 32 20.8911 31.982 22.5971 31.9031C24.3005 31.8255 25.4637 31.5555 26.4808 31.1599C27.5328 30.7503 28.4246 30.2035 29.3151 29.3144C30.2056 28.4253 30.751 27.5322 31.1606 26.4801C31.5561 25.463 31.8275 24.2998 31.9037 22.5965C31.9813 20.8892 31.9994 20.3451 31.9994 16C31.9994 11.6549 31.9813 11.1095 31.9037 9.40352C31.8262 7.7001 31.5561 6.53632 31.1606 5.51987C30.751 4.46784 30.2042 3.57606 29.3151 2.68557C28.426 1.79507 27.5328 1.24851 26.482 0.840064C25.4637 0.444544 24.3004 0.173184 22.5984 0.096896C20.8924 0.019328 20.347 0 16.0019 0C11.6568 0 11.111 0.018048 9.40416 0.096896Z"
                                  fill="url(#paint0_radial_1078_6209)"
                                />
                                <path
                                  d="M10.6682 16C10.6682 13.0546 13.0552 10.6662 16.0006 10.6662C18.946 10.6662 21.3344 13.0546 21.3344 16C21.3344 18.9454 18.946 21.3338 16.0006 21.3338C13.0552 21.3338 10.6682 18.9454 10.6682 16ZM7.78483 16C7.78483 20.5376 11.463 24.2158 16.0006 24.2158C20.5382 24.2158 24.2164 20.5376 24.2164 16C24.2164 11.4624 20.5382 7.78419 16.0006 7.78419C11.463 7.78419 7.78483 11.4624 7.78483 16ZM22.6217 7.45843C22.6215 7.83817 22.734 8.20943 22.9448 8.52526C23.1557 8.84108 23.4555 9.08729 23.8062 9.23275C24.157 9.37821 24.543 9.41639 24.9155 9.34246C25.288 9.26852 25.6302 9.0858 25.8988 8.81739C26.1674 8.54898 26.3504 8.20694 26.4247 7.83453C26.4989 7.46211 26.461 7.07605 26.3158 6.72516C26.1707 6.37426 25.9247 6.0743 25.609 5.8632C25.2934 5.65211 24.9222 5.53935 24.5425 5.5392H24.5417C24.0327 5.53944 23.5446 5.74169 23.1846 6.10155C22.8246 6.4614 22.6221 6.94942 22.6217 7.45843ZM9.53664 29.0236C7.9767 28.9526 7.12883 28.6927 6.56538 28.4732C5.81837 28.1824 5.28538 27.836 4.72499 27.2764C4.16461 26.7168 3.81773 26.1843 3.52819 25.4373C3.30854 24.8741 3.0487 24.026 2.97779 22.466C2.90022 20.7795 2.88474 20.2729 2.88474 16.0001C2.88474 11.7274 2.9015 11.2221 2.97779 9.53421C3.04883 7.97427 3.31059 7.12781 3.52819 6.56294C3.81901 5.81594 4.16538 5.28294 4.72499 4.72256C5.28461 4.16218 5.81709 3.8153 6.56538 3.52576C7.12858 3.30611 7.9767 3.04627 9.53664 2.97536C11.2232 2.89779 11.7298 2.8823 16.0006 2.8823C20.2715 2.8823 20.7786 2.89907 22.4666 2.97536C24.0265 3.0464 24.873 3.30816 25.4378 3.52576C26.1848 3.8153 26.7178 4.16294 27.2782 4.72256C27.8386 5.28218 28.1842 5.81594 28.475 6.56294C28.6947 7.12614 28.9545 7.97427 29.0254 9.53421C29.103 11.2221 29.1185 11.7274 29.1185 16.0001C29.1185 20.2729 29.103 20.7781 29.0254 22.466C28.9544 24.026 28.6932 24.8739 28.475 25.4373C28.1842 26.1843 27.8378 26.7173 27.2782 27.2764C26.7186 27.8355 26.1848 28.1824 25.4378 28.4732C24.8746 28.6929 24.0265 28.9527 22.4666 29.0236C20.78 29.1012 20.2734 29.1167 16.0006 29.1167C11.7279 29.1167 11.2227 29.1012 9.53664 29.0236ZM9.40416 0.096896C7.70086 0.174464 6.53696 0.444544 5.52051 0.840064C4.46784 1.24851 3.5767 1.79648 2.68621 2.68557C1.79571 3.57466 1.24915 4.4672 0.840705 5.51987C0.445185 6.53696 0.175105 7.70022 0.0975369 9.40352C0.0186889 11.1095 0.000640869 11.6549 0.000640869 16C0.000640869 20.3451 0.0186889 20.8905 0.0975369 22.5965C0.175105 24.2999 0.445185 25.463 0.840705 26.4801C1.24915 27.5322 1.79584 28.4257 2.68621 29.3144C3.57658 30.2031 4.46784 30.7503 5.52051 31.1599C6.53888 31.5555 7.70086 31.8255 9.40416 31.9031C11.111 31.9807 11.6556 32 16.0006 32C20.3457 32 20.8911 31.982 22.5971 31.9031C24.3005 31.8255 25.4637 31.5555 26.4808 31.1599C27.5328 30.7503 28.4246 30.2035 29.3151 29.3144C30.2056 28.4253 30.751 27.5322 31.1606 26.4801C31.5561 25.463 31.8275 24.2998 31.9037 22.5965C31.9813 20.8892 31.9994 20.3451 31.9994 16C31.9994 11.6549 31.9813 11.1095 31.9037 9.40352C31.8262 7.7001 31.5561 6.53632 31.1606 5.51987C30.751 4.46784 30.2042 3.57606 29.3151 2.68557C28.426 1.79507 27.5328 1.24851 26.482 0.840064C25.4637 0.444544 24.3004 0.173184 22.5984 0.096896C20.8924 0.019328 20.347 0 16.0019 0C11.6568 0 11.111 0.018048 9.40416 0.096896Z"
                                  fill="url(#paint1_radial_1078_6209)"
                                />
                              </g>
                              <defs>
                                <radialGradient id="paint0_radial_1078_6209" cx="0" cy="0" r="1" gradientUnits="userSpaceOnUse" gradientTransform="translate(4.25203 32.1512) scale(41.7733 41.7733)">
                                  <stop offset="0.09" stop-color="#FA8F21" />
                                  <stop offset="0.78" stop-color="#D82D7E" />
                                </radialGradient>
                                <radialGradient id="paint1_radial_1078_6209" cx="0" cy="0" r="1" gradientUnits="userSpaceOnUse" gradientTransform="translate(19.4072 33.5848) scale(32.9231)">
                                  <stop offset="0.64" stop-color="#8C3AAA" stop-opacity="0" />
                                  <stop offset="1" stop-color="#8C3AAA" />
                                </radialGradient>
                                <clipPath>
                                  <rect width="32" height="32" fill="white" />
                                </clipPath>
                              </defs>
                            </svg>