 <svg width="32" height="32" viewBox="0 0 32 32" fill="none" xmlns="http://www.w3.org/2000/svg">
                              <g clip-path="">
                                <path d="M2.40732 3.98352H28.9155V29.3515H2.40732V3.98352Z" fill="white" />
                                <path
                                  d="M0.0320129 2.32009C0.0320129 1.05676 1.08885 0.0319824 2.39194 0.0319824H29.6081C30.9112 0.0319824 31.968 1.05676 31.968 2.32009V29.6812C31.968 30.9445 30.9112 31.968 29.6081 31.968H2.39194C1.08885 31.968 0.0320129 30.9445 0.0320129 29.6812V2.32009Z"
                                  fill="#0A66C2"
                                />
                                <path
                                  d="M9.7372 26.7582V12.3806H4.95834V26.7582H9.7372ZM7.34905 10.4183C9.01511 10.4183 10.0527 9.31397 10.0527 7.93392C10.0219 6.5231 9.01511 5.44958 7.38112 5.44958C5.74584 5.44958 4.67746 6.5231 4.67746 7.93392C4.67746 9.31397 5.71378 10.4183 7.31827 10.4183H7.34905ZM12.3819 26.7582H17.1607V18.7293C17.1607 18.2997 17.1915 17.87 17.3185 17.5635C17.6635 16.7041 18.4497 15.8153 19.7707 15.8153C21.4997 15.8153 22.191 17.1338 22.191 19.0666V26.7569H26.9698V18.5138C26.9698 14.098 24.6124 12.0433 21.4689 12.0433C18.8909 12.0433 17.7597 13.4836 17.1299 14.4648H17.162V12.3806H12.3819C12.4447 13.7299 12.3819 26.7582 12.3819 26.7582Z"
                                  fill="white"
                                />
                              </g>
                              <defs>
                                <clipPath>
                                  <rect width="32" height="31.936" fill="white" transform="translate(0 0.0319824)" />
                                </clipPath>
                              </defs>
                            </svg>