<svg width="64" height="64" viewBox="0 0 64 64" fill="none" xmlns="http://www.w3.org/2000/svg">
<path d="M32.4636 7L10 19.5183V44.5183L32.5 57L55 44.5183V19.5183L32.4636 7ZM54.2354 41.8829L32.4636 53.9619L12.8762 43.0908V34.0864L14.3325 33.2811V42.5417L32.4636 52.6076L54.2354 40.5286V41.8829ZM10.7282 22.1171L32.5 10.0381L52.0874 20.9092V29.9136L50.6311 30.7189V21.4583L32.5 11.3924L10.7282 23.5081V22.1171ZM10.7282 24.3133L32.5 12.2343L49.9029 21.8975V31.1215L48.4466 31.9268V22.4466L32.5 13.5886L10.7282 25.7042V24.3133ZM10.7282 26.5095L32.5 14.4305L47.7184 22.8858V32.366L46.2621 33.1713V23.4348L32.5 15.7848L10.7282 27.9004V26.5095ZM10.7282 28.7057L32.5 16.6267L45.534 23.8741V33.5739L44.4417 34.1962V24.6062L32.5 17.981L10.7282 30.0966V28.7057ZM10.7282 30.9019L32.5 18.8228L43.7136 25.0454V34.5622L42.2573 35.3675V25.5944L32.5 20.1772L10.7282 32.2928V30.9019ZM10.7282 33.0981L32.5 21.019L41.5291 26.0337V35.8067L40.0728 36.612V26.5827L32.5 22.3734L10.7282 34.489V33.0981ZM25.6553 27.022L32.5 23.2152L39.3447 27.022V37.0146L32.5 40.8214L25.6553 37.0146V27.022ZM54.2354 39.6867L32.4636 51.7657L15.0607 42.1025V32.8785L16.517 32.0732V41.5534L32.4636 50.4114L54.2354 38.3324V39.6867ZM54.2354 37.4905L32.4636 49.5695L17.2451 41.1142V31.634L18.7015 30.8287V40.5652L32.4636 48.2152L54.2354 36.1362V37.4905ZM54.2354 35.2943L32.4636 47.3734L19.4296 40.1259V30.4627L20.5218 29.8404V39.3938L32.4636 46.019L54.2354 33.94V35.2943ZM54.2354 33.0981L32.4636 45.1772L21.25 38.9546V29.4378L22.7063 28.6325V38.4056L32.4636 43.8228L54.2354 31.7438V33.0981ZM54.2354 30.9019L32.4636 42.981L23.4345 37.9663V28.1933L24.8908 27.388V37.4173L32.4636 41.6266L54.2354 29.5476V30.9019ZM32.4636 7.84188L54.2354 19.9209V28.7057L52.7791 29.511V20.47L32.4636 9.19619L10.7282 21.3119V19.9575L32.4636 7.84188ZM32.4636 56.1581L10.6917 44.0791V35.2943L12.1481 34.489V43.53L32.4636 54.8038L54.2354 42.7247V44.0791L32.4636 56.1581Z" fill="#22C55E"/>
</svg>
