<svg width="64" height="64" viewBox="0 0 64 64" fill="none" xmlns="http://www.w3.org/2000/svg">
<path d="M51.8872 12.1451C45.0221 5.28496 33.8843 5.28496 27.0192 12.1451L12.1368 27.0168C8.8243 30.3269 7 34.7405 7 39.4418C7 44.1432 8.8243 48.5567 12.1368 51.8669C15.4494 55.177 19.8661 57 24.5708 57C29.2756 57 33.6923 55.177 37.0048 51.8669L51.8872 36.9952C58.7043 30.1351 58.7043 19.0053 51.8872 12.1451ZM24.5708 56.0405C20.1541 56.0405 15.9774 54.3135 12.8089 51.1953C9.68843 48.077 7.96015 43.9033 7.96015 39.4418C7.96015 35.0283 9.68843 30.8547 12.8089 27.6884L23.6107 16.8945C23.0346 18.0458 22.6025 19.2931 22.3144 20.5404L13.9611 28.8878C8.15218 34.6925 8.15218 44.1912 13.9611 49.9959C16.8896 52.9223 20.6822 54.3615 24.5228 54.3615C28.3634 54.3615 32.156 52.9223 35.0845 49.9959C40.8934 44.1912 40.8934 34.6925 35.0845 28.8878C33.9323 27.7364 33.3082 26.2013 33.3082 24.5702C33.3082 22.9391 33.9323 21.4039 35.0845 20.2526C36.2367 19.1012 37.7729 18.4776 39.4052 18.4776C41.0374 18.4776 42.5737 19.1012 43.7259 20.2526C44.8781 21.4039 45.5022 22.9391 45.5022 24.5702C45.5022 26.2013 44.8781 27.7364 43.7259 28.8878L40.5094 32.1019C40.2693 31.5742 39.9813 31.0465 39.6932 30.5668L42.5257 27.7364C44.254 26.0094 44.254 23.1789 42.5257 21.4999C40.7974 19.7728 37.965 19.7728 36.2847 21.4999C34.5564 23.2269 34.5564 26.0573 36.2847 27.7364C42.7657 34.2128 42.7657 44.7189 36.2847 51.1953C33.1642 54.3135 28.9875 56.0405 24.5708 56.0405ZM41.7576 35.9398L46.2703 31.4303C50.0629 27.6404 50.0629 21.4999 46.2703 17.758C42.4777 13.9681 36.3327 13.9681 32.5881 17.758C28.7955 21.5479 28.7955 27.6884 32.5881 31.4303C34.7484 33.5891 35.9006 36.4195 35.9006 39.4418C35.9006 42.4642 34.7004 45.3425 32.5881 47.4533C30.4278 49.6121 27.5953 50.7635 24.5708 50.7635C21.5463 50.7635 18.6659 49.5642 16.5535 47.4533C14.3932 45.2946 13.241 42.4642 13.241 39.4418C13.241 36.4195 14.4412 33.5411 16.5535 31.4303L21.9304 26.0573C21.9784 26.7769 22.0744 27.4486 22.2184 28.1202L17.7057 32.6297C15.8814 34.4526 14.8733 36.8993 14.8733 39.4898C14.8733 42.0804 15.8814 44.527 17.7057 46.35C19.578 48.2209 22.0744 49.1804 24.5708 49.1804C27.0672 49.1804 29.5156 48.2209 31.4359 46.35C35.2285 42.5601 35.2285 36.4195 31.4359 32.6776C29.2756 30.5188 28.1234 27.6884 28.1234 24.6661C28.1234 21.6438 29.3236 18.7654 31.4359 16.6546C33.5963 14.4958 36.4287 13.3444 39.4532 13.3444C42.4777 13.3444 45.3581 14.5438 47.4705 16.6546C51.8872 21.0681 51.8872 28.2641 47.4705 32.6776L42.0456 38.0986C41.9976 37.331 41.9016 36.6114 41.7576 35.9398ZM42.1416 39.2979L48.1906 33.2533C52.9914 28.456 52.9914 20.6364 48.1906 15.8391C45.8862 13.5363 42.7657 12.2411 39.5012 12.2411C36.1887 12.2411 33.1162 13.5363 30.8118 15.8391C28.5074 18.1418 27.2112 21.26 27.2112 24.5222C27.2112 27.8323 28.5074 30.9026 30.8118 33.2053C34.2204 36.6114 34.2204 42.1283 30.8118 45.5344C27.4033 48.9405 21.8824 48.9405 18.4738 45.5344C16.8416 43.9033 15.9294 41.6966 15.9294 39.3459C15.9294 36.9952 16.8416 34.8364 18.4738 33.1574L22.5545 29.0796C22.6985 29.7033 22.8905 30.279 23.1306 30.8546L19.626 34.3567C18.2818 35.6999 17.5617 37.4749 17.5617 39.3459C17.5617 41.2168 18.2818 42.9918 19.626 44.3351C20.9702 45.6783 22.7465 46.3979 24.6188 46.3979C26.4911 46.3979 28.2674 45.6783 29.6116 44.3351C30.9558 42.9918 31.6759 41.2168 31.6759 39.3459C31.6759 37.4749 30.9558 35.6999 29.6116 34.3567C24.1387 28.8878 24.1387 20.0607 29.6116 14.5918C35.0845 9.12281 43.9179 9.12281 49.3908 14.5918C54.8637 20.0607 54.8637 28.8878 49.3908 34.3567L42.0456 41.6966C42.0936 40.977 42.1416 40.1614 42.1416 39.2979ZM21.8824 24.5702C21.8824 24.6181 21.8824 24.6661 21.8824 24.7141L15.8814 30.7107C13.5771 33.0134 12.2808 36.1317 12.2808 39.3939C12.2808 42.704 13.5771 45.7743 15.8814 48.077C18.1858 50.3797 21.3063 51.675 24.5708 51.675C27.8833 51.675 30.9558 50.3797 33.2602 48.077C38.061 43.2797 38.061 35.4601 33.2602 30.6628C29.8517 27.2567 29.8517 21.7398 33.2602 18.3337C36.6688 14.9276 42.1896 14.9276 45.5982 18.3337C49.0067 21.7398 49.0067 27.2567 45.5982 30.6628L41.5175 34.7405C41.3735 34.1168 41.1815 33.5411 40.9414 32.9655L44.446 29.4634C45.7902 28.1202 46.5103 26.3452 46.5103 24.4742C46.5103 22.6033 45.7902 20.8283 44.446 19.485C43.1018 18.1418 41.3255 17.4222 39.4532 17.4222C37.5809 17.4222 35.8046 18.1418 34.4604 19.485C33.1162 20.8283 32.3961 22.6033 32.3961 24.4742C32.3961 26.3452 33.1162 28.1202 34.4604 29.4634C39.9333 34.9324 39.9333 43.7594 34.4604 49.2284C28.9875 54.6973 20.1541 54.6973 14.6812 49.2284C9.20835 43.7594 9.20835 34.9324 14.6812 29.4634L22.0264 22.1235C21.9304 22.9871 21.8824 23.8026 21.8824 24.5702ZM37.0048 27.0168C35.6606 25.6735 35.6606 23.4668 37.0048 22.1235C38.349 20.7803 40.5574 20.7803 41.9016 22.1235C43.2458 23.4668 43.2458 25.6735 41.9016 27.0168L39.2132 29.7033C38.5891 28.7918 37.8209 27.8803 37.0048 27.0168ZM51.2151 36.3236L40.3653 47.1655C40.9414 45.9662 41.3735 44.7669 41.6616 43.5196L50.0149 35.1722C55.8238 29.3675 55.8238 19.8688 50.0149 14.064C44.206 8.25929 34.7004 8.25929 28.8915 14.064C23.0826 19.8688 23.0826 29.3675 28.8915 35.1722C30.0437 36.3236 30.6678 37.8587 30.6678 39.4898C30.6678 41.1209 30.0437 42.656 28.8915 43.8074C27.7393 44.9587 26.2031 45.5824 24.5708 45.5824C22.9386 45.5824 21.4023 44.9587 20.2501 43.8074C19.0979 42.656 18.4738 41.1209 18.4738 39.4898C18.4738 37.8587 19.0979 36.3236 20.2501 35.1722L23.4666 31.958C23.7067 32.4857 23.9947 33.0134 24.2828 33.4932L21.4503 36.3236C19.722 38.0506 19.722 40.881 21.4503 42.5601C22.3145 43.4236 23.4666 43.8554 24.5708 43.8554C25.723 43.8554 26.8272 43.4236 27.6913 42.5601C29.4196 40.8331 29.4196 38.0026 27.6913 36.3236C24.5708 33.2053 22.8425 29.0317 22.8425 24.5702C22.8425 20.1566 24.5708 15.983 27.6913 12.8168C34.1724 6.34038 44.686 6.34038 51.1671 12.8168C57.6481 19.2931 57.6481 29.8472 51.2151 36.3236ZM27.0192 36.9952C28.3634 38.3385 28.3634 40.5452 27.0192 41.8885C25.675 43.2317 23.4666 43.2317 22.1224 41.8885C20.7782 40.5452 20.7782 38.3385 22.1224 36.9952L24.8109 34.3087C25.435 35.2682 26.2031 36.1797 27.0192 36.9952Z" fill="#B71D18"/>
</svg>
