<svg width="64" height="64" viewBox="0 0 64 64" fill="none" xmlns="http://www.w3.org/2000/svg">
<path d="M49.6821 14.3179C39.9248 4.56069 24.0752 4.56069 14.3179 14.3179C4.56069 24.0752 4.56069 39.9248 14.3179 49.6821C24.0752 59.4393 39.9248 59.4393 49.6821 49.6821C59.4393 39.9248 59.4393 24.0276 49.6821 14.3179ZM37.069 55.4888C30.2627 53.585 24.0752 49.92 19.03 44.9224C14.0324 39.9248 10.3674 33.6897 8.46359 26.8834C8.74917 25.6459 9.08234 24.4084 9.55831 23.1709C9.6535 23.5516 9.7011 23.98 9.79629 24.3608C11.4146 31.643 15.0795 38.2589 20.3627 43.5421C25.5507 48.7301 31.9762 52.2999 39.0681 54.0133C38.9729 54.3465 38.8777 54.6797 38.7825 55.0129C38.2589 55.2032 37.6878 55.346 37.069 55.4888ZM26.931 8.46358C33.7373 10.3674 39.9248 14.0324 44.97 19.03C49.9676 24.0276 53.6326 30.2627 55.5364 37.069C55.2508 38.3065 54.9177 39.544 54.4417 40.7339C52.9662 33.0233 49.2537 25.9791 43.6373 20.3627C38.4493 15.1747 32.0238 11.6049 24.9319 9.89147C25.0271 9.5583 25.1223 9.22513 25.2175 8.84436C25.7411 8.74917 26.3598 8.60637 26.931 8.46358ZM24.1704 15.6982C24.1704 15.0319 24.218 14.4131 24.2656 13.7468C30.5483 15.2699 36.3075 18.5064 40.8767 23.1233C47.1119 29.3584 50.7768 37.6402 51.2527 46.4455C50.6816 47.207 50.0628 47.9686 49.3489 48.6825C49.4441 39.6392 45.9219 30.8815 39.544 24.5036C35.2604 20.2199 29.9772 17.1737 24.1704 15.6982ZM41.5907 22.4093C36.831 17.6497 30.8815 14.3179 24.4084 12.7473C24.5036 12.1285 24.5988 11.4622 24.7416 10.8434C31.643 12.4617 37.9257 15.9838 42.971 21.029C48.7301 26.8834 52.4902 34.2608 53.7277 42.3522C53.2518 43.3517 52.7282 44.3037 52.1095 45.208C51.3955 36.5931 47.683 28.5493 41.5907 22.4093ZM25.4555 26.0742C26.693 28.8348 28.4065 31.3098 30.5483 33.4517C32.6426 35.5459 35.07 37.2594 37.783 38.4969C38.1161 39.306 38.4493 40.1152 38.6873 40.9243C35.1176 39.5916 31.9286 37.545 29.2156 34.7844C26.2646 31.8334 24.0752 28.3589 22.7425 24.4084C21.1718 19.8391 20.8862 14.8891 21.8858 10.1295C22.5997 9.79628 23.3137 9.51071 24.0752 9.27272C22.5997 14.8415 23.0757 20.791 25.4555 26.0742ZM26.931 26.8834C29.0728 28.0257 31.0719 29.4536 32.7853 31.2147C34.5464 32.9757 35.9743 34.9272 37.1166 37.069C34.9748 35.9267 32.9757 34.4988 31.2623 32.7377C29.5012 31.0243 28.0733 29.0728 26.931 26.8834ZM21.8382 24.7416C23.2185 28.7872 25.4555 32.4046 28.5017 35.4983C31.5002 38.4969 35.0224 40.6863 38.9729 42.1142C39.1633 42.8282 39.306 43.5421 39.4488 44.2561C34.832 42.8282 30.5959 40.3056 27.1214 36.831C23.504 33.2137 20.8862 28.6921 19.5059 23.7896C18.4112 19.9343 18.1257 15.9362 18.6492 11.9381C19.3156 11.4622 20.0295 11.0814 20.7911 10.7006C19.9819 15.3651 20.3151 20.2199 21.8382 24.7416ZM18.6492 24.0276C20.0771 29.0728 22.7901 33.7373 26.5026 37.4498C30.1675 41.1147 34.6892 43.7801 39.6392 45.208C39.7344 45.8743 39.782 46.5883 39.782 47.2546C34.2608 45.7791 29.2156 42.8758 25.1223 38.7825C20.8862 34.5464 17.9353 29.2632 16.5074 23.504C15.7458 20.5055 15.4603 17.4117 15.603 14.3179C16.2694 13.6992 16.9357 13.128 17.6497 12.6045C17.3165 16.5074 17.6021 20.3151 18.6492 24.0276ZM15.603 23.7896C17.0785 29.7392 20.1247 35.1652 24.456 39.4964C28.692 43.7325 34.0228 46.7787 39.782 48.2542C39.782 48.9205 39.7344 49.5393 39.6868 50.2056C33.4041 48.6825 27.6449 45.446 23.0757 40.8291C18.3636 36.1171 15.0795 30.1675 13.5564 23.6944C13.0804 21.6478 12.7949 19.6011 12.6997 17.5069C13.2708 16.7454 13.8896 16.0314 14.5559 15.3175C14.6035 18.1733 14.9367 21.029 15.603 23.7896ZM12.6997 23.9324C14.2228 30.5959 17.6021 36.6882 22.4569 41.5431C27.2166 46.3027 33.1661 49.6345 39.6392 51.2051C39.544 51.8239 39.4488 52.4902 39.306 53.109C32.4046 51.4907 26.1218 47.9686 21.0766 42.9234C15.9362 37.783 12.3665 31.3098 10.7482 24.218C10.5578 23.3613 10.415 22.5045 10.2723 21.6478C10.7482 20.6483 11.2718 19.6963 11.8905 18.792C12.0333 20.5055 12.3189 22.2189 12.6997 23.9324ZM33.4517 30.5483C31.3574 28.4541 28.93 26.7406 26.217 25.5031C25.8839 24.694 25.5507 23.8848 25.3127 23.0757C28.8824 24.4084 32.0714 26.455 34.7844 29.2156C41.2575 35.6887 43.9705 44.8748 42.0666 53.8705C41.3527 54.2037 40.6387 54.4893 39.8772 54.7273C42.257 46.0647 39.782 36.8786 33.4517 30.5483ZM35.4983 28.5017C32.4998 25.5031 28.9776 23.3137 25.0271 21.8858C24.8367 21.1718 24.694 20.4579 24.5512 19.7439C29.168 21.1718 33.4041 23.6944 36.8786 27.169C43.4469 33.7373 46.5407 42.8282 45.3508 52.0619C44.6844 52.5378 43.9705 52.9186 43.2565 53.2994C44.8748 44.2561 42.019 35.07 35.4983 28.5017ZM37.4974 26.5026C33.8325 22.8377 29.3108 20.1723 24.3608 18.7444C24.2656 18.0781 24.218 17.3641 24.218 16.6978C29.7392 18.1733 34.7844 21.0766 38.8777 25.1699C45.3032 31.5954 48.7777 40.5435 48.397 49.6345C47.7306 50.2532 47.0643 50.8244 46.3503 51.3479C47.2546 42.0666 44.1133 33.0709 37.4974 26.5026ZM55.5364 26.8834C53.4422 23.0281 50.8244 19.4583 47.683 16.317C44.5416 13.1756 40.9719 10.5578 37.1166 8.46358C41.4955 9.41551 45.6364 11.5573 49.0157 14.9367C52.395 18.3636 54.5845 22.5045 55.5364 26.8834ZM34.0704 8.03522C38.8777 10.2246 43.2565 13.2232 47.0167 17.0309C50.7768 20.791 53.8229 25.1699 56.0124 29.9772C56.1552 31.643 56.1076 33.3565 55.9172 35.0224C53.8705 28.7872 50.3484 23.0757 45.684 18.4112C41.0195 13.7468 35.3079 10.2247 29.0728 8.17801C30.6911 7.94003 32.4046 7.89243 34.0704 8.03522ZM8.51119 37.069C10.6054 40.9243 13.2232 44.4941 16.3646 47.6354C19.5059 50.7768 23.0757 53.3946 26.931 55.4888C22.5521 54.5369 18.4112 52.3951 14.9843 49.0157C11.605 45.5888 9.46311 41.4479 8.51119 37.069ZM29.9772 55.9648C25.1699 53.7754 20.7911 50.7768 17.0309 46.9691C13.2708 43.209 10.2247 38.8301 8.03522 34.0228C7.89243 32.357 7.94003 30.6435 8.13041 28.9776C10.1771 35.2128 13.6992 40.9243 18.3636 45.5888C23.0281 50.2532 28.7396 53.7753 34.9748 55.822C33.3089 56.06 31.643 56.1076 29.9772 55.9648Z" fill="#006C9C"/>
</svg>
