<svg width="64" height="64" viewBox="0 0 64 64" fill="none" xmlns="http://www.w3.org/2000/svg">
<path d="M52.1491 43.3885L30.8755 55.752V53.0998L49.867 42.0624V21.3136L49.0934 21.7816V41.6334L30.8755 52.2418V49.5897L46.8113 40.3073V23.0686L46.0377 23.5367V39.8393L30.8755 48.6537V46.0016L43.7557 38.5133V24.8627L42.9821 25.3307V38.0842L30.8755 45.1435V42.4914L40.7 36.7582V26.6178L39.9264 27.0858V36.2512L30.8755 41.5164V38.8643L37.6443 34.9251V28.4119L36.8708 28.8799V34.5351L30.8755 38.0452V35.6661L34.8208 33.3651V30.1279L34.0472 30.5959V32.936L30.8755 34.7691V31.064L53 18.1934L52.2264 17.7254L30.1019 30.5959V35.1981L27.8198 36.5242V29.2309L49.9443 16.3604L49.1708 15.8924L27.0462 28.7629V36.9142L24.7642 38.2402V27.4368L46.8887 14.5663L46.1151 14.0983L23.9906 26.9688V38.6693L21.7085 39.9953V25.6817L43.833 12.8112L43.0594 12.3432L20.9349 25.2137V40.4633L18.6528 41.7894V23.8877L40.7774 11.0172L40.0038 10.5491L17.8792 23.4197V42.2184L15.5972 43.5445V22.0936L37.7217 9.22309L36.9481 8.75507L14.8236 21.6256V43.9735L12.7736 45.1825V20.2215L34.7047 7.46802L33.9311 7L12 19.7535V46.5476L14.8236 44.9095V48.2246L17.8792 46.4306V49.9797L20.9349 48.1856V51.7348L23.9906 49.9407V53.4899L27.0462 51.6958V55.2449L30.1019 53.4509V57L52.9226 43.7395V19.5195L52.1491 19.9875V43.3885ZM30.1019 49.0827L27.8198 50.4087V47.7566L30.1019 46.4306V49.0827ZM30.1019 45.5335L27.8198 46.8596V44.2075L30.1019 42.8814V45.5335ZM24.7642 42.4524L27.0462 41.1264V43.7785L24.7642 45.1045V42.4524ZM23.9906 45.5335L21.7085 46.8596V44.2075L23.9906 42.8814V45.5335ZM27.0462 44.6755V47.3276L24.7642 48.6537V46.0016L27.0462 44.6755ZM30.1019 41.9844L27.8198 43.3105V40.6583L30.1019 39.3323V41.9844ZM30.1019 36.0562V38.4353L27.8198 39.7613V37.3822L30.1019 36.0562ZM27.0462 37.8112V40.1903L24.7642 41.5164V39.1373L27.0462 37.8112ZM23.9906 39.6053V41.9844L21.7085 43.3105V40.9314L23.9906 39.6053ZM20.9349 41.3604V43.7395L18.6528 45.0655V42.6864L20.9349 41.3604ZM15.6358 46.8596V44.4805L17.9179 43.1544V45.5335L15.6358 46.8596ZM18.6915 48.6537V46.0016L20.9736 44.6755V47.3276L18.6915 48.6537ZM21.7085 50.4087V47.7566L23.9906 46.4306V49.0827L21.7085 50.4087ZM24.7642 52.2028V49.5507L27.0462 48.2246V50.8768L24.7642 52.2028ZM27.8198 53.9579V51.3058L30.1019 49.9797V52.6318L27.8198 53.9579Z" fill="#00A76F"/>
</svg>
