<svg width="32" height="32" viewBox="0 0 32 32" fill="none" xmlns="http://www.w3.org/2000/svg">
                              <g clip-path="">
                                <path d="M21.333 15.8853C18.407 14.3217 15.6054 12.8842 12.7416 11.3833V20.3618C15.7552 18.7236 18.9316 17.2233 21.3454 15.8853H21.333Z" fill="white" />
                                <path d="M21.333 15.8853C18.407 14.3217 12.7416 11.3833 12.7416 11.3833L20.2951 16.4602C20.2951 16.4602 18.9191 17.2233 21.333 15.8853Z" fill="#E8E0E0" />
                                <path
                                  d="M13.2922 27.39C7.21477 27.2781 5.13903 27.1775 3.86315 26.9146C2.99993 26.74 2.2498 26.3522 1.69978 25.7897C1.27468 25.364 0.936619 24.7145 0.674339 23.8134C0.449358 23.0627 0.361733 22.4381 0.23681 20.9124C0.0455759 17.469 -1.23233e-05 14.6537 0.23681 11.5082C0.432188 9.77107 0.526917 7.70894 1.8247 6.50588C2.43748 5.94284 3.15031 5.5805 3.95077 5.43071C5.20119 5.1933 10.5285 5.00562 16.0435 5.00562C21.5461 5.00562 26.8852 5.1933 28.1368 5.43071C29.1368 5.61839 30.0746 6.18084 30.6252 6.90611C31.8093 8.76872 31.8301 11.0848 31.9503 12.8965C32 13.7597 32 18.6614 31.9503 19.5246C31.7632 22.3878 31.6128 23.4008 31.1877 24.4511C30.9248 25.1142 30.7004 25.4641 30.312 25.8519C29.7029 26.4487 28.9264 26.8456 28.0859 26.9898C22.8267 27.3853 18.3608 27.4712 13.2922 27.39ZM21.3459 15.8852C18.42 14.3216 15.6184 12.8717 12.7546 11.3708V20.3499C15.7682 18.7117 18.9452 17.2108 21.3584 15.8728L21.3459 15.8852Z"
                                  fill="#CD201F"
                                />
                              </g>
                              <defs>
                                <clipPath>
                                  <rect width="32" height="22.4768" fill="white" transform="translate(0 5)" />
                                </clipPath>
                              </defs>
                            </svg>