<svg width="28" height="28" viewBox="0 0 28 28" fill="none" xmlns="http://www.w3.org/2000/svg">
<g clip-path="url(#clip0_956_776)">
<path d="M14.0743 26H3C2.44771 26 2 25.5523 2 25V22.662C2 22.1097 2.44772 21.662 3 21.662H14.0743C18.2759 21.662 21.6923 18.2249 21.6923 13.9979C21.6923 9.77086 18.2759 6.33375 14.0743 6.33375H7.46244C6.90939 6.33375 6.46136 6.78266 6.46244 7.33571L6.4755 14.0117C6.47658 14.5633 6.92398 15.0098 7.4755 15.0098H14.104C14.643 15.0098 15.0759 14.57 15.0759 14.032C15.0759 13.4898 14.6387 13.0543 14.104 13.0543H9.63767C9.08538 13.0543 8.63767 12.6065 8.63767 12.0543V9.71624C8.63767 9.16396 9.08538 8.71624 9.63767 8.71624H14.0997C17.0154 8.71624 19.3836 11.103 19.3836 14.032C19.3836 16.961 17.0111 19.3478 14.0997 19.3478H4.1701C3.06706 19.3478 2.17226 18.4548 2.1701 17.3517L2.14398 4.00392C2.14181 2.89782 3.03787 2 4.14397 2H14.0743C20.6525 2 26.0042 7.3841 26.0042 14.0021C26 20.6159 20.6525 26 14.0743 26Z" fill="#00A76F"/>
</g>
<defs>
<clipPath id="clip0_956_776">
<rect width="24" height="24" fill="white" transform="translate(2 2)"/>
</clipPath>
</defs>
</svg>
