<svg width="125" height="32" viewBox="0 0 125 32" fill="none" xmlns="http://www.w3.org/2000/svg">
<path d="M34.4583 26V6.16914C34.5863 6.16914 34.9109 6.16914 35.432 6.16914C35.9623 6.16914 36.5749 6.16914 37.2697 6.16914C37.9737 6.16 38.664 6.16 39.3406 6.16914C40.0172 6.16914 40.5703 6.17828 41 6.19657C43.3954 6.26971 45.3474 6.72228 46.856 7.55428C48.3737 8.37714 49.4846 9.51085 50.1886 10.9554C50.9017 12.3909 51.2583 14.0731 51.2583 16.0023C51.2583 17.9954 50.8834 19.7417 50.1337 21.2411C49.3932 22.7406 48.2594 23.9109 46.7326 24.752C45.2057 25.584 43.2629 26 40.904 26H34.4583ZM39.1486 22.2834H41.0412C41.9463 22.2834 42.8057 22.0777 43.6194 21.6663C44.4332 21.2549 45.096 20.5874 45.608 19.664C46.1292 18.7406 46.3897 17.5017 46.3897 15.9474C46.3897 14.5669 46.1703 13.4286 45.7314 12.5326C45.2926 11.6366 44.6754 10.9737 43.88 10.544C43.0846 10.1051 42.1474 9.88571 41.0686 9.88571H39.1486V22.2834ZM57.839 26.2743C56.943 26.2743 56.1247 26.1051 55.3842 25.7669C54.6527 25.4194 54.0722 24.9166 53.6424 24.2583C53.2127 23.6 52.9979 22.7954 52.9979 21.8446C52.9979 20.2994 53.5922 19.1109 54.7807 18.2789C55.9693 17.4469 57.8344 17.0263 60.3762 17.0171L61.8162 17.0034V16.2766C61.8162 15.7189 61.6562 15.3029 61.3362 15.0286C61.0253 14.7451 60.5362 14.608 59.8687 14.6171C59.3933 14.6263 58.9133 14.7406 58.4287 14.96C57.9442 15.1703 57.6013 15.5634 57.4002 16.1394H53.5739C53.6287 15.0697 53.9442 14.1966 54.5202 13.52C55.0962 12.8434 55.8642 12.3451 56.8242 12.0251C57.7933 11.7051 58.8767 11.5451 60.0744 11.5451C61.6287 11.5451 62.8584 11.7326 63.7636 12.1074C64.6687 12.4731 65.3133 12.9897 65.6973 13.6571C66.0904 14.3154 66.287 15.0926 66.287 15.9886V26H62.4059L62.0082 23.6549C61.5602 24.6514 60.9979 25.3371 60.3213 25.712C59.6447 26.0869 58.8173 26.2743 57.839 26.2743ZM59.4436 23.2709C59.7544 23.2709 60.0516 23.216 60.335 23.1063C60.6184 22.9966 60.8699 22.8457 61.0893 22.6537C61.3087 22.4526 61.4824 22.2331 61.6104 21.9954C61.7384 21.7577 61.807 21.5017 61.8162 21.2274V19.2937L60.6642 19.3074C60.1887 19.3074 59.695 19.3714 59.183 19.4994C58.6802 19.6274 58.255 19.8423 57.9076 20.144C57.5602 20.4366 57.3864 20.8434 57.3864 21.3646C57.3864 21.9589 57.5922 22.4251 58.0036 22.7634C58.415 23.1017 58.895 23.2709 59.4436 23.2709ZM74.5124 26.2743C73.5249 26.2743 72.5604 26.1097 71.6187 25.7806C70.6769 25.4514 69.8724 24.9257 69.2049 24.2034C68.5375 23.4811 68.1078 22.5394 67.9158 21.3783H71.9204C72.0392 21.8629 72.2541 22.2331 72.5649 22.4891C72.8758 22.7451 73.2049 22.9189 73.5524 23.0103C73.9089 23.1017 74.2198 23.1474 74.4849 23.1474C75.1615 23.1474 75.7101 23.0514 76.1307 22.8594C76.5512 22.6674 76.7615 22.3749 76.7615 21.9817C76.7615 21.6526 76.629 21.3966 76.3638 21.2137C76.1078 21.0217 75.6552 20.8709 75.0061 20.7611L72.7158 20.336C71.4084 20.0891 70.3569 19.6366 69.5615 18.9783C68.7661 18.3109 68.3638 17.3691 68.3547 16.1531C68.3455 15.2846 68.5787 14.5029 69.0541 13.808C69.5295 13.1131 70.2289 12.5646 71.1524 12.1623C72.0758 11.7509 73.2049 11.5451 74.5398 11.5451C76.3867 11.5451 77.8541 11.9474 78.9421 12.752C80.0301 13.5566 80.5787 14.6674 80.5878 16.0846H76.7478C76.6472 15.6 76.3867 15.2343 75.9661 14.9874C75.5547 14.7314 75.0609 14.6034 74.4849 14.6034C73.8998 14.6034 73.4061 14.704 73.0038 14.9051C72.6107 15.0971 72.4141 15.3897 72.4141 15.7829C72.4141 16.0846 72.5878 16.3269 72.9352 16.5097C73.2827 16.6926 73.8358 16.8571 74.5947 17.0034L76.6655 17.4286C77.5158 17.6389 78.2061 17.9223 78.7364 18.2789C79.2667 18.6263 79.6735 19.0057 79.957 19.4171C80.2495 19.8286 80.4461 20.24 80.5467 20.6514C80.6564 21.0537 80.7112 21.4103 80.7112 21.7211C80.7112 22.6994 80.4415 23.5269 79.9021 24.2034C79.3718 24.88 78.6358 25.3966 77.6941 25.7531C76.7615 26.1006 75.7009 26.2743 74.5124 26.2743ZM82.6897 26V5.62057H87.3389V13.8491C87.5583 13.5474 87.828 13.2366 88.148 12.9166C88.4772 12.5966 88.8886 12.3269 89.3823 12.1074C89.876 11.888 90.4977 11.7783 91.2475 11.7783C92.1435 11.7783 92.9663 11.9566 93.716 12.3131C94.4657 12.6697 95.0646 13.1909 95.5126 13.8766C95.9697 14.5623 96.1983 15.4034 96.1983 16.4V26H91.5217V17.0446C91.5217 16.4869 91.316 16.0663 90.9046 15.7829C90.4932 15.4903 90.0223 15.344 89.492 15.344C89.1446 15.344 88.8063 15.4126 88.4772 15.5497C88.148 15.6869 87.8783 15.888 87.668 16.1531C87.4577 16.4183 87.3526 16.7429 87.3526 17.1269V26H82.6897ZM105.321 26.2743C103.886 26.2743 102.62 25.9771 101.522 25.3829C100.434 24.7886 99.5842 23.952 98.9716 22.8731C98.3682 21.7943 98.0665 20.528 98.0665 19.0743C98.0665 17.6937 98.3407 16.4366 98.8893 15.3029C99.447 14.16 100.252 13.2503 101.303 12.5737C102.354 11.888 103.621 11.5451 105.102 11.5451C106.601 11.5451 107.854 11.8606 108.86 12.4914C109.865 13.1131 110.62 13.9726 111.122 15.0697C111.634 16.1577 111.89 17.4057 111.89 18.8137V19.9794H102.661C102.652 20.6286 102.752 21.1771 102.962 21.6251C103.173 22.064 103.47 22.3977 103.854 22.6263C104.238 22.8549 104.686 22.9691 105.198 22.9691C105.783 22.9691 106.3 22.8503 106.748 22.6126C107.205 22.3657 107.538 21.9406 107.749 21.3371H111.918C111.762 22.3703 111.351 23.2571 110.684 23.9977C110.025 24.7291 109.221 25.2914 108.27 25.6846C107.319 26.0777 106.336 26.2743 105.321 26.2743ZM102.647 17.2914H107.557C107.557 16.8251 107.465 16.4 107.282 16.016C107.1 15.6229 106.825 15.312 106.46 15.0834C106.103 14.8549 105.65 14.7406 105.102 14.7406C104.617 14.7406 104.188 14.864 103.813 15.1109C103.447 15.3486 103.159 15.664 102.949 16.0571C102.748 16.4411 102.647 16.8526 102.647 17.2914ZM113.95 26V11.8194H118.448V15.4537C118.667 14.7131 118.983 14.0503 119.394 13.4651C119.815 12.8709 120.331 12.4046 120.944 12.0663C121.557 11.7189 122.265 11.5451 123.07 11.5451C123.17 11.5451 123.257 11.5497 123.33 11.5589C123.413 11.5589 123.463 11.568 123.481 11.5863V16.016C123.435 15.9977 123.376 15.984 123.303 15.9749C123.239 15.9657 123.17 15.9611 123.097 15.9611C122.201 15.8697 121.461 15.8834 120.875 16.0023C120.299 16.1211 119.842 16.3131 119.504 16.5783C119.175 16.8434 118.942 17.1589 118.805 17.5246C118.677 17.8903 118.613 18.288 118.613 18.7177V26H113.95Z" fill="#222831"/>
<g clip-path="url(#clip0_952_431)">
<path d="M14.2278 29.7143H1.57145C0.940264 29.7143 0.428589 29.2026 0.428589 28.5714V25.8994C0.428589 25.2682 0.940264 24.7566 1.57145 24.7566H14.2278C19.0296 24.7566 22.9341 20.8284 22.9341 15.9976C22.9341 11.1667 19.0296 7.23858 14.2278 7.23858H6.67137C6.03932 7.23858 5.52728 7.75161 5.52852 8.38367L5.54345 16.0134C5.54468 16.6437 6.05599 17.154 6.6863 17.154H14.2617C14.8777 17.154 15.3724 16.6514 15.3724 16.0366C15.3724 15.4169 14.8728 14.9192 14.2617 14.9192H9.15735C8.52617 14.9192 8.01449 14.4075 8.01449 13.7763V11.1043C8.01449 10.4731 8.52617 9.96143 9.15735 9.96143H14.2569C17.589 9.96143 20.2955 12.6892 20.2955 16.0366C20.2955 19.3841 17.5842 22.1118 14.2569 22.1118H2.9087C1.64808 22.1118 0.625455 21.0912 0.622987 19.8305L0.593132 4.57591C0.590658 3.3118 1.61473 2.28572 2.87884 2.28572H14.2278C21.7458 2.28572 27.862 8.43897 27.862 16.0024C27.8572 23.561 21.7458 29.7143 14.2278 29.7143Z" fill="#00A76F"/>
</g>
<defs>
<clipPath id="clip0_952_431">
<rect width="27.4286" height="27.4286" fill="white" transform="translate(0.428589 2.28572)"/>
</clipPath>
</defs>
</svg>
