<svg width="64" height="64" viewBox="0 0 64 64" fill="none" xmlns="http://www.w3.org/2000/svg">
<path d="M45.2845 34.9079L37.6695 21.1004L39.7197 17.4184L39.2594 16.5397L31.9791 29.8033L26.7489 39.3013C26.2887 40.1381 26.0376 41.1004 26.0376 42.1046C26.0376 43.7364 26.7071 45.3264 27.9205 46.4142C29.0502 47.4602 30.4728 48.0042 31.9791 48.0042C32.1046 48.0042 32.2301 48.0042 32.3975 48.0042C35.3682 47.795 37.7531 45.41 37.9205 42.4393C37.9623 41.3515 37.7531 40.2636 37.251 39.3431L32.4812 30.682L33.318 29.1757L38.5481 38.6318C39.1757 39.8033 39.4686 41.1423 39.3849 42.523C39.1757 46.2469 36.205 49.2176 32.523 49.4686C30.431 49.5941 28.4644 48.8828 26.9582 47.5021C25.4519 46.0795 24.6151 44.1548 24.6151 42.1046C24.6151 40.8912 24.9079 39.7197 25.4937 38.6318L38.4644 15.0753L38.0042 14.1967L24.7824 38.2134C24.1548 39.3849 23.8201 40.7238 23.8201 42.0628C23.8201 44.3222 24.7824 46.4979 26.4142 48.046C27.9623 49.4686 29.9289 50.2636 32.0209 50.2636C32.1883 50.2636 32.3975 50.2636 32.5648 50.2636C36.7071 50.0126 39.9707 46.6653 40.2218 42.523C40.3054 41.0167 39.9707 39.5105 39.2594 38.2134L33.7782 28.2971L34.6151 26.7908L40.5565 37.5439C41.3933 39.092 41.7699 40.8494 41.6862 42.6067C41.3933 47.4602 37.5439 51.3933 32.6904 51.728C29.9707 51.8954 27.4184 50.9749 25.41 49.1339C23.4435 47.2929 22.3556 44.7824 22.3556 42.0628C22.3556 40.4728 22.7322 38.9247 23.4854 37.5439L37.1674 12.6904L36.7071 11.8117L22.7741 37.1255C21.9791 38.6318 21.5607 40.3473 21.5607 42.0628C21.5607 44.9498 22.7741 47.7531 24.9079 49.7197C26.8745 51.5607 29.3849 52.5649 32.1046 52.5649C32.3556 52.5649 32.5648 52.5649 32.8159 52.523C38.0879 52.1883 42.3138 47.9205 42.6067 42.6485C42.7322 40.7238 42.3138 38.7992 41.3933 37.1255L35.2008 25.9121L36.0377 24.4059L42.6485 36.4561C43.6527 38.3808 44.1548 40.5565 44.0293 42.7322C43.6946 48.7573 38.8828 53.6109 32.8996 53.9874C29.5523 54.1966 26.3724 53.0669 23.9038 50.7657C21.477 48.5063 20.0962 45.3264 20.0962 42.0209C20.0962 40.0544 20.5983 38.1297 21.477 36.4142L35.8703 10.3054L35.3264 9.38494L20.682 35.9958C19.7197 37.8368 19.1757 39.9289 19.1757 41.9791C19.1757 45.4937 20.6402 48.9247 23.2343 51.3096C25.6192 53.569 28.7155 54.7824 31.9791 54.7824C32.272 54.7824 32.5649 54.7824 32.8577 54.7406C39.3013 54.3222 44.4059 49.1339 44.7824 42.6904C44.9079 40.3473 44.4059 38.046 43.318 35.954L36.4142 23.4435L37.251 21.9372L44.5732 35.2845C45.7866 37.5858 46.3724 40.1799 46.205 42.7741C45.7866 49.9707 40.0962 55.7029 32.9414 56.205C28.9665 56.4561 25.159 55.1172 22.2301 52.3975C19.3431 49.7197 17.7113 45.9121 17.7113 41.9791C17.7113 39.6778 18.2971 37.3347 19.3849 35.2845L34.4895 7.87866L34.0293 7L30.682 13.0669L28.6318 9.38494L28.1715 10.2636L30.2217 13.9456L29.3849 15.4519L27.3347 11.7699L26.8745 12.6485L28.9247 16.3305L28.0879 17.8368L26.0376 14.1548L25.5774 15.0335L27.6276 18.7155L26.7908 20.2218L24.7406 16.5397L24.2803 17.4184L26.3305 21.1004L18.7573 34.8661C17.5858 37.0418 17 39.4686 17 41.9372C17 46.0795 18.7573 50.0962 21.7699 52.9414C24.6151 55.5774 28.2134 57 32.0628 57C32.3975 57 32.7322 57 33.1088 56.9582C40.682 56.4561 46.7489 50.3473 47.1674 42.7741C47.2092 40.0544 46.5816 37.3347 45.2845 34.9079ZM36.4561 39.6778C36.8745 40.4728 37.0837 41.4351 37.0418 42.3556C36.9163 44.9079 34.8661 47 32.3138 47.1674C30.8912 47.251 29.5105 46.7908 28.5063 45.7866C27.4603 44.8243 26.8745 43.4854 26.8745 42.0628C26.8745 41.2259 27.0837 40.431 27.4603 39.6778L31.9791 31.5188L36.4561 39.6778Z" fill="#FF5630"/>
<path d="M31.9792 10.682L29.929 7L29.4688 7.87866L31.4771 11.5607L31.9792 10.682Z" fill="#FF5630"/>
</svg>
