<svg width="64" height="64" viewBox="0 0 64 64" fill="none" xmlns="http://www.w3.org/2000/svg">
<path d="M42.3399 7C34.2727 7 27.7617 13.5306 27.7617 21.5714V27.898H21.6192C13.552 27.8571 7 34.3878 7 42.4286C7 50.4694 13.552 57 21.6192 57C29.6863 57 36.2383 50.4694 36.2383 42.4286V36.102H42.3808C50.448 36.102 57 29.5714 57 21.5306C56.9591 13.5306 50.407 7 42.3399 7ZM27.7617 33.5714H21.6192C16.7052 33.5714 12.733 37.5714 12.733 42.4286C12.733 47.2857 16.7461 51.2857 21.6192 51.2857C26.4922 51.2857 30.5053 47.2857 30.5053 42.3878L30.3825 21.449C30.3825 14.9184 35.706 9.57143 42.2989 9.57143C48.8919 9.57143 54.2154 14.8776 54.2154 21.449C54.2154 28.0204 48.8919 33.3265 42.2989 33.3265H36.1974V32.3061H42.2989C48.2776 32.3061 53.1097 27.4898 53.1097 21.5306C53.1097 15.5714 48.2776 10.7551 42.2989 10.7551C36.3612 10.7551 31.4881 15.5714 31.4881 21.5306L31.611 42.4694C31.611 47.9796 27.1474 52.4286 21.6192 52.4286C16.0909 52.4286 11.6274 47.9796 11.6274 42.4694C11.6274 36.9592 16.0909 32.5102 21.6192 32.5102H27.7207V33.5714H27.7617ZM27.7617 31.6939H21.6192C15.6405 31.6939 10.8084 36.5102 10.8084 42.4694C10.8084 48.4286 15.6405 53.2449 21.6192 53.2449C27.5979 53.2449 32.43 48.4286 32.43 42.4694L32.3071 21.5306C32.3071 16.0204 36.7707 11.5714 42.2989 11.5714C47.8272 11.5714 52.2907 16.0204 52.2907 21.5306C52.2907 27 47.8272 31.4898 42.2989 31.4898H36.1974V30.3878H42.2989C47.2129 30.3878 51.1851 26.3878 51.1851 21.5306C51.1851 16.6327 47.172 12.6735 42.2989 12.6735C37.4259 12.6735 33.4128 16.6735 33.4128 21.5714L33.5356 42.5102C33.5356 49.0408 28.2121 54.3878 21.6192 54.3878C15.0262 54.3878 9.7027 49.0816 9.7027 42.5102C9.7027 35.9388 15.0262 30.6327 21.6192 30.6327H27.7207V31.6939H27.7617ZM35.3784 42.4286C35.3784 50.0204 29.1949 56.1837 21.5782 56.1837C14.0025 56.1429 7.819 49.9796 7.819 42.4286C7.819 34.8367 14.0025 28.6735 21.6192 28.6735H27.7617V29.7755H21.6192C14.6167 29.7755 8.8837 35.449 8.8837 42.4694C8.8837 49.449 14.5758 55.1633 21.6192 55.1633C28.6216 55.1633 34.3546 49.4898 34.3546 42.4694L34.2318 21.5306C34.2318 17.0816 37.8763 13.4898 42.2989 13.4898C46.7625 13.4898 50.3661 17.1224 50.3661 21.5306C50.3661 25.9388 46.7215 29.5714 42.2989 29.5714H36.1974V28.4694H42.3399C46.1892 28.4694 49.3014 25.3673 49.3014 21.5306C49.3014 17.6939 46.1892 14.5918 42.3399 14.5918C38.4906 14.5918 35.3784 17.6939 35.3784 21.5306V42.4286ZM36.1974 27.6939V21.5714C36.1974 18.1837 38.941 15.449 42.3399 15.449C45.7387 15.449 48.4824 18.1837 48.4824 21.5714C48.4824 24.9592 45.7387 27.6939 42.3399 27.6939H36.1974ZM42.3399 35.2857H36.1974V34.1837H42.2989C49.3014 34.1837 55.0344 28.5102 55.0344 21.4898C55.0344 14.5102 49.3423 8.79592 42.2989 8.79592C35.2965 8.79592 29.5635 14.4694 29.5635 21.4898L29.6863 42.4286C29.6863 46.8776 26.0418 50.4694 21.6192 50.4694C17.1556 50.4694 13.552 46.8367 13.552 42.4286C13.552 38.0204 17.1966 34.3878 21.6192 34.3878H27.7207V35.4898H21.5782C17.7289 35.4898 14.6167 38.5918 14.6167 42.4286C14.6167 46.2653 17.7289 49.3673 21.5782 49.3673C25.4275 49.3673 28.5397 46.2653 28.5397 42.4286V21.5714C28.5807 13.9796 34.7232 7.81633 42.3399 7.81633C49.9566 7.81633 56.1401 13.9796 56.1401 21.5714C56.1401 29.1225 49.9566 35.2857 42.3399 35.2857ZM27.7617 36.3061V42.4286C27.7617 45.8163 25.018 48.551 21.6192 48.551C18.2203 48.551 15.4767 45.8163 15.4767 42.4286C15.4767 39.0408 18.2203 36.3061 21.6192 36.3061H27.7617Z" fill="#00B8D9"/>
</svg>
