<svg width="64" height="64" viewBox="0 0 64 64" fill="none" xmlns="http://www.w3.org/2000/svg">
<path d="M40.959 15.1592L23.9181 31.8794L31.7831 39.5965L31.1277 40.2396L22.6482 31.9196L40.3446 14.5563L39.7711 13.9936L21.5012 31.9196L30.5952 40.8425L29.9398 41.4855L20.2313 31.9598L39.1566 13.3907L38.5831 12.828L19.3711 31.6785L19.0843 31.9598L29.4072 42.0884L28.7518 42.7315L17.8145 32L37.9687 12.2251L37.3952 11.6624L16.6675 32L28.2193 43.3344L27.5639 43.9775L15.3976 32.0402L36.7807 11.0595L36.2072 10.4968L14.2506 32.0402L27.0313 44.5804L26.3759 45.2235L12.9807 32.0804L35.5928 9.8939L35.0193 9.3312L11.8337 32.0804L25.8434 45.8264L25.1879 46.4695L10.5639 32.1206L34.4048 8.7283L33.8313 8.1656L9.41686 32.1206L24.6554 47.0724L24 47.7154L8.14699 32.1608L33.2169 7.5627L32.6434 7L7 32.1608L24.041 48.881L41.0819 32.1608L33.2169 24.4437L33.8723 23.8007L42.3518 32.1206L24.4096 49.2026L24.9831 49.7653L43.253 31.8392L34.159 22.9164L34.8145 22.2733L44.5229 31.799L25.6386 50.4084L26.212 50.9711L45.7108 31.8392L35.3879 21.7106L36.0434 21.0675L46.9807 31.799L26.8675 51.6142L27.441 52.1768L48.1687 31.8392L36.6169 20.5048L37.2723 19.8617L49.4386 31.799L28.0964 52.8199L28.6699 53.3826L50.6265 31.8392L37.8458 19.299L38.5012 18.6559L51.8964 31.799L29.3253 54.0257L29.8988 54.5884L53.0843 31.8392L39.0747 18.0933L39.7301 17.4502L54.3542 31.799L30.5542 55.2315L31.1277 55.7942L55.5422 31.8392L40.3036 16.8875L40.959 16.2444L56.8121 31.799L31.7831 56.4373L32.3566 57L58 31.8392L40.959 15.1592ZM39.6482 31.8392L32.3566 38.9936L25.106 31.8794L32.3566 24.7653L39.6482 31.8392Z" fill="#FFAB00"/>
</svg>
